<svg xmlns="http://www.w3.org/2000/svg" viewBox="0 0 1913.22 1077.83"><defs><style>.cls-1{fill:transparent;}</style></defs><title>bg-pattern</title><g id="Layer_2" data-name="Layer 2"><g id="Layer_1-2" data-name="Layer 1"><path class="cls-1" d="M186.53,0H162.76a92.86,92.86,0,0,0,7.35,36.24,93.19,93.19,0,0,0,20,29.71,93.19,93.19,0,0,0,29.71,20,92.82,92.82,0,0,0,36.38,7.35V69.55A69.77,69.77,0,0,1,186.53,0Z"/><path class="cls-1" d="M233.15,0H209.37a46.91,46.91,0,0,0,46.85,46.71V22.93A23.1,23.1,0,0,1,233.15,0Z"/><path class="cls-1" d="M139.92,0H116.15a139.24,139.24,0,0,0,11,54.39q2.07,4.9,4.5,9.61a139.62,139.62,0,0,0,25.51,34.91,140.1,140.1,0,0,0,35.19,25.66c3,1.55,6.16,3,9.34,4.35a139.09,139.09,0,0,0,54.52,11V116.16A116.44,116.44,0,0,1,139.92,0Z"/><path class="cls-1" d="M66.09,190.56a93.14,93.14,0,0,0-29.7-20A92.87,92.87,0,0,0,0,163.19V187A69.77,69.77,0,0,1,69.69,256.5H93.46a92.81,92.81,0,0,0-7.35-36.23A93,93,0,0,0,66.09,190.56Z"/><path class="cls-1" d="M0,209.8v23.77A23.1,23.1,0,0,1,23.07,256.5H46.85A46.9,46.9,0,0,0,0,209.8Z"/><path class="cls-1" d="M174.47,140.73a164.1,164.1,0,0,1-58.95-58.81A161.68,161.68,0,0,1,99.89,45.76,162.71,162.71,0,0,1,93.3,0H69.53a187.93,187.93,0,0,0,3.28,34.93,184.64,184.64,0,0,0,7.75,28.3q1.69,4.7,3.64,9.3A185.82,185.82,0,0,0,96.69,96.9a187,187,0,0,0,27.52,35,187,187,0,0,0,35.32,27.73,185.82,185.82,0,0,0,24,12.27q4.8,2,9.7,3.79a184.56,184.56,0,0,0,28.31,7.69,187.64,187.64,0,0,0,34.66,3.2V162.77a162.31,162.31,0,0,1-45.54-6.48A161.2,161.2,0,0,1,174.47,140.73Z"/><path class="cls-1" d="M202.4,202.38a208.27,208.27,0,0,1-26.74-9.1,207.8,207.8,0,0,1-35-18.7,211,211,0,0,1-58.94-58.8A208.28,208.28,0,0,1,63,80.85a205.82,205.82,0,0,1-9.16-26.73h0a206,206,0,0,1-5.19-25.71A209.73,209.73,0,0,1,46.69,0H22.92a233.31,233.31,0,0,0,1.29,24.58A237.28,237.28,0,0,0,0,23.35V47.12A210,210,0,0,1,28.09,49a228.21,228.21,0,0,0,6.58,24.16A187.75,187.75,0,0,0,0,70V93.74a162.38,162.38,0,0,1,45.55,6.48,232,232,0,0,0,18.31,31.72h0q-4.57-2.34-9.33-4.35A139.18,139.18,0,0,0,0,116.57v23.78A116.43,116.43,0,0,1,116.3,256.5h23.78a139.37,139.37,0,0,0-11-54.38q-2.08-4.91-4.51-9.61h0a230.92,230.92,0,0,0,31.76,18.23,162.64,162.64,0,0,1,6.59,45.75h23.77a187.82,187.82,0,0,0-3.28-34.92,225.83,225.83,0,0,0,24.18,6.51h0a209.58,209.58,0,0,1,1.94,28.4h23.78A238.62,238.62,0,0,0,232,231.93a236.94,236.94,0,0,0,24.2,1.23V209.39a209.77,209.77,0,0,1-28.08-1.88A208.19,208.19,0,0,1,202.4,202.38Z"/><path class="cls-1" d="M512.36,186.68V162.9A93.4,93.4,0,0,0,419,256.36h23.78A69.75,69.75,0,0,1,512.36,186.68Z"/><path class="cls-1" d="M512.36,233.29V209.52a46.89,46.89,0,0,0-46.7,46.84h23.77A23.1,23.1,0,0,1,512.36,233.29Z"/><path class="cls-1" d="M512.36,140.06V116.29a139.19,139.19,0,0,0-54.38,11q-4.92,2.07-9.61,4.5a140.68,140.68,0,0,0-60.57,60.7q-2.34,4.58-4.36,9.34a139.12,139.12,0,0,0-11,54.52H396.2A116.44,116.44,0,0,1,512.36,140.06Z"/><path class="cls-1" d="M321.8,66.23a93.17,93.17,0,0,0,20-29.7A93,93,0,0,0,349.18.14H325.4a69.77,69.77,0,0,1-69.54,69.69V93.6a93.06,93.06,0,0,0,36.24-7.34A93.17,93.17,0,0,0,321.8,66.23Z"/><path class="cls-1" d="M302.56.14H278.79a23.09,23.09,0,0,1-22.93,23.07V47A46.9,46.9,0,0,0,302.56.14Z"/><path class="cls-1" d="M371.63,174.61a164.17,164.17,0,0,1,58.81-59,162,162,0,0,1,81.92-22.21V69.67A187.82,187.82,0,0,0,477.44,73a183.66,183.66,0,0,0-28.31,7.76c-3.12,1.12-6.23,2.34-9.3,3.64a184.55,184.55,0,0,0-24.37,12.48,186.89,186.89,0,0,0-75,86.86q-2,4.8-3.79,9.7A184.56,184.56,0,0,0,329,221.7a188.59,188.59,0,0,0-3.19,34.66h23.77a162.2,162.2,0,0,1,22-81.75Z"/><path class="cls-1" d="M310,202.54a208.32,208.32,0,0,1,27.8-61.7A210.89,210.89,0,0,1,396.59,81.9,208.48,208.48,0,0,1,458.24,54h0A207.62,207.62,0,0,1,484,48.77a211.1,211.1,0,0,1,28.4-1.94V23.06a236,236,0,0,0-24.58,1.29A234.3,234.3,0,0,0,489,.14H465.24a209.92,209.92,0,0,1-1.87,28.09,228.38,228.38,0,0,0-24.17,6.58A187.75,187.75,0,0,0,442.4.14H418.63a162.33,162.33,0,0,1-6.49,45.55A232.61,232.61,0,0,0,380.42,64h0q2.34-4.57,4.36-9.33a139.35,139.35,0,0,0,11-54.53H372a116.43,116.43,0,0,1-116.16,116.3v23.78a139.19,139.19,0,0,0,54.38-11q4.9-2.09,9.61-4.51h0a231,231,0,0,0-18.24,31.76,161.87,161.87,0,0,1-45.75,6.59v23.77a187.82,187.82,0,0,0,34.92-3.28,231.3,231.3,0,0,0-6.51,24.18h0a207.87,207.87,0,0,1-28.4,1.94v23.78a238.81,238.81,0,0,0,24.58-1.29,234.11,234.11,0,0,0-1.24,24.2H303a209.54,209.54,0,0,1,7-53.82Z"/><path class="cls-1" d="M699.53,0H675.76a92.86,92.86,0,0,0,7.35,36.24,93.19,93.19,0,0,0,20,29.71,93.19,93.19,0,0,0,29.71,20,92.82,92.82,0,0,0,36.38,7.35V69.55A69.77,69.77,0,0,1,699.53,0Z"/><path class="cls-1" d="M746.15,0H722.37a46.91,46.91,0,0,0,46.85,46.71V22.93A23.1,23.1,0,0,1,746.15,0Z"/><path class="cls-1" d="M652.92,0H629.15a139.24,139.24,0,0,0,11,54.39q2.07,4.9,4.5,9.61a139.62,139.62,0,0,0,25.51,34.91,140.1,140.1,0,0,0,35.19,25.66c3,1.55,6.16,3,9.34,4.35a139.09,139.09,0,0,0,54.52,11V116.16A116.44,116.44,0,0,1,652.92,0Z"/><path class="cls-1" d="M579.09,190.56A93.21,93.21,0,0,0,513,163.19V187a69.77,69.77,0,0,1,69.69,69.54h23.77a93.26,93.26,0,0,0-27.37-65.94Z"/><path class="cls-1" d="M513,209.8v23.77a23.1,23.1,0,0,1,23.07,22.93h23.78A46.9,46.9,0,0,0,513,209.8Z"/><path class="cls-1" d="M687.47,140.73a164.1,164.1,0,0,1-59-58.81,161.68,161.68,0,0,1-15.63-36.16A162.71,162.71,0,0,1,606.3,0H582.53a187.93,187.93,0,0,0,3.28,34.93,184.64,184.64,0,0,0,7.75,28.3q1.7,4.7,3.64,9.3A185.82,185.82,0,0,0,609.69,96.9a187,187,0,0,0,27.52,35,187,187,0,0,0,35.32,27.73,185.82,185.82,0,0,0,24,12.27q4.8,2,9.7,3.79a184.56,184.56,0,0,0,28.31,7.69,187.64,187.64,0,0,0,34.66,3.2V162.77a162.31,162.31,0,0,1-45.54-6.48A161.2,161.2,0,0,1,687.47,140.73Z"/><path class="cls-1" d="M715.4,202.38a208.27,208.27,0,0,1-26.74-9.1,207.8,207.8,0,0,1-35-18.7,211,211,0,0,1-58.94-58.8A208.28,208.28,0,0,1,576,80.85a205.82,205.82,0,0,1-9.16-26.73h0a206,206,0,0,1-5.19-25.71A209.73,209.73,0,0,1,559.69,0H535.92a233.31,233.31,0,0,0,1.29,24.58A237.28,237.28,0,0,0,513,23.35V47.12A210,210,0,0,1,541.09,49a228.21,228.21,0,0,0,6.58,24.16A187.75,187.75,0,0,0,513,70V93.74a162.38,162.38,0,0,1,45.55,6.48,232,232,0,0,0,18.31,31.72h0q-4.58-2.34-9.33-4.35a139.18,139.18,0,0,0-54.53-11v23.78A116.43,116.43,0,0,1,629.3,256.5h23.78a139.37,139.37,0,0,0-11-54.38q-2.09-4.91-4.51-9.61h0a230.92,230.92,0,0,0,31.76,18.23,162.64,162.64,0,0,1,6.59,45.75h23.77a187.82,187.82,0,0,0-3.28-34.92,225.83,225.83,0,0,0,24.18,6.51h0a209.58,209.58,0,0,1,1.94,28.4h23.78A238.62,238.62,0,0,0,745,231.93a236.94,236.94,0,0,0,24.2,1.23V209.39a209.77,209.77,0,0,1-28.08-1.88A208.19,208.19,0,0,1,715.4,202.38Z"/><path class="cls-1" d="M1025.36,186.68V162.9A93.4,93.4,0,0,0,932,256.36h23.78A69.75,69.75,0,0,1,1025.36,186.68Z"/><path class="cls-1" d="M1025.36,233.29V209.52a46.89,46.89,0,0,0-46.7,46.84h23.77A23.1,23.1,0,0,1,1025.36,233.29Z"/><path class="cls-1" d="M1025.36,140.06V116.29a139.19,139.19,0,0,0-54.38,11q-4.92,2.07-9.61,4.5a140.68,140.68,0,0,0-60.57,60.7q-2.34,4.58-4.36,9.34a139.12,139.12,0,0,0-11,54.52H909.2A116.44,116.44,0,0,1,1025.36,140.06Z"/><path class="cls-1" d="M834.8,66.23a93.17,93.17,0,0,0,20-29.7A93,93,0,0,0,862.18.14H838.4a69.77,69.77,0,0,1-69.54,69.69V93.6a93.06,93.06,0,0,0,36.24-7.34A93.17,93.17,0,0,0,834.8,66.23Z"/><path class="cls-1" d="M815.56.14H791.79a23.09,23.09,0,0,1-22.93,23.07V47A46.9,46.9,0,0,0,815.56.14Z"/><path class="cls-1" d="M884.63,174.61a164.17,164.17,0,0,1,58.81-59,162,162,0,0,1,81.92-22.21V69.67A187.82,187.82,0,0,0,990.44,73a183.66,183.66,0,0,0-28.31,7.76c-3.12,1.12-6.23,2.34-9.3,3.64a184.55,184.55,0,0,0-24.37,12.48,186.89,186.89,0,0,0-75,86.86q-2,4.8-3.79,9.7A184.56,184.56,0,0,0,842,221.7a188.59,188.59,0,0,0-3.19,34.66h23.77a162.2,162.2,0,0,1,22-81.75Z"/><path class="cls-1" d="M823,202.54a208.32,208.32,0,0,1,27.8-61.7A210.89,210.89,0,0,1,909.59,81.9,208.48,208.48,0,0,1,971.24,54h0A207.62,207.62,0,0,1,997,48.77a211.1,211.1,0,0,1,28.4-1.94V23.06a236,236,0,0,0-24.58,1.29A234.3,234.3,0,0,0,1002,.14H978.24a209.92,209.92,0,0,1-1.87,28.09,228.38,228.38,0,0,0-24.17,6.58A187.75,187.75,0,0,0,955.4.14H931.63a162.33,162.33,0,0,1-6.49,45.55A232.61,232.61,0,0,0,893.42,64h0q2.34-4.57,4.36-9.33a139.35,139.35,0,0,0,11-54.53H885a116.43,116.43,0,0,1-116.16,116.3v23.78a139.19,139.19,0,0,0,54.38-11q4.9-2.09,9.61-4.51h0a231,231,0,0,0-18.24,31.76,161.87,161.87,0,0,1-45.75,6.59v23.77a187.82,187.82,0,0,0,34.92-3.28,231.3,231.3,0,0,0-6.51,24.18h0a207.87,207.87,0,0,1-28.4,1.94v23.78a238.81,238.81,0,0,0,24.58-1.29,234.11,234.11,0,0,0-1.24,24.2H816a209.54,209.54,0,0,1,7-53.82Z"/><path class="cls-1" d="M1212.53,0h-23.77a92.86,92.86,0,0,0,7.35,36.24,93.19,93.19,0,0,0,20,29.71,93.19,93.19,0,0,0,29.71,20,92.82,92.82,0,0,0,36.38,7.35V69.55A69.77,69.77,0,0,1,1212.53,0Z"/><path class="cls-1" d="M1259.15,0h-23.78a46.91,46.91,0,0,0,46.85,46.71V22.93A23.1,23.1,0,0,1,1259.15,0Z"/><path class="cls-1" d="M1165.92,0h-23.77a139.24,139.24,0,0,0,11,54.39q2.07,4.9,4.5,9.61a139.62,139.62,0,0,0,25.51,34.91,140.1,140.1,0,0,0,35.19,25.66c3.05,1.55,6.16,3,9.34,4.35a139.09,139.09,0,0,0,54.52,11V116.16A116.44,116.44,0,0,1,1165.92,0Z"/><path class="cls-1" d="M1092.09,190.56A93.21,93.21,0,0,0,1026,163.19V187a69.77,69.77,0,0,1,69.69,69.54h23.77a93.26,93.26,0,0,0-27.37-65.94Z"/><path class="cls-1" d="M1026,209.8v23.77a23.1,23.1,0,0,1,23.07,22.93h23.78A46.9,46.9,0,0,0,1026,209.8Z"/><path class="cls-1" d="M1200.47,140.73a164.1,164.1,0,0,1-59-58.81,161.68,161.68,0,0,1-15.63-36.16A162.71,162.71,0,0,1,1119.3,0h-23.77a187.93,187.93,0,0,0,3.28,34.93,184.64,184.64,0,0,0,7.75,28.3q1.7,4.7,3.64,9.3a185.82,185.82,0,0,0,12.49,24.37,187,187,0,0,0,27.52,35,187,187,0,0,0,35.32,27.73,185.82,185.82,0,0,0,24,12.27q4.8,2,9.7,3.79a184.56,184.56,0,0,0,28.31,7.69,187.64,187.64,0,0,0,34.66,3.2V162.77a162.31,162.31,0,0,1-45.54-6.48A161.2,161.2,0,0,1,1200.47,140.73Z"/><path class="cls-1" d="M1228.4,202.38a208.27,208.27,0,0,1-26.74-9.1,207.8,207.8,0,0,1-35-18.7,211,211,0,0,1-58.94-58.8A208.28,208.28,0,0,1,1089,80.85a205.82,205.82,0,0,1-9.16-26.73h0a206,206,0,0,1-5.19-25.71A209.73,209.73,0,0,1,1072.69,0h-23.77a233.31,233.31,0,0,0,1.29,24.58A237.28,237.28,0,0,0,1026,23.35V47.12A210,210,0,0,1,1054.09,49a228.21,228.21,0,0,0,6.58,24.16A187.75,187.75,0,0,0,1026,70V93.74a162.38,162.38,0,0,1,45.55,6.48,232,232,0,0,0,18.31,31.72h0q-4.58-2.34-9.33-4.35a139.18,139.18,0,0,0-54.53-11v23.78A116.43,116.43,0,0,1,1142.3,256.5h23.78a139.37,139.37,0,0,0-11-54.38q-2.08-4.91-4.51-9.61h0a230.92,230.92,0,0,0,31.76,18.23,162.64,162.64,0,0,1,6.59,45.75h23.77a187.82,187.82,0,0,0-3.28-34.92,225.83,225.83,0,0,0,24.18,6.51h0a209.58,209.58,0,0,1,1.94,28.4h23.78a238.62,238.62,0,0,0-1.29-24.57,236.94,236.94,0,0,0,24.2,1.23V209.39a209.77,209.77,0,0,1-28.08-1.88A208.19,208.19,0,0,1,1228.4,202.38Z"/><path class="cls-1" d="M1538.36,186.68V162.9A93.4,93.4,0,0,0,1445,256.36h23.78A69.75,69.75,0,0,1,1538.36,186.68Z"/><path class="cls-1" d="M1538.36,233.29V209.52a46.89,46.89,0,0,0-46.7,46.84h23.77A23.1,23.1,0,0,1,1538.36,233.29Z"/><path class="cls-1" d="M1538.36,140.06V116.29a139.19,139.19,0,0,0-54.38,11q-4.92,2.07-9.61,4.5a140.68,140.68,0,0,0-60.57,60.7q-2.34,4.58-4.36,9.34a139.12,139.12,0,0,0-11,54.52h23.77A116.44,116.44,0,0,1,1538.36,140.06Z"/><path class="cls-1" d="M1347.8,66.23a93.17,93.17,0,0,0,20-29.7A93,93,0,0,0,1375.18.14H1351.4a69.77,69.77,0,0,1-69.54,69.69V93.6a93.06,93.06,0,0,0,36.24-7.34A93.17,93.17,0,0,0,1347.8,66.23Z"/><path class="cls-1" d="M1328.56.14h-23.77a23.09,23.09,0,0,1-22.93,23.07V47A46.9,46.9,0,0,0,1328.56.14Z"/><path class="cls-1" d="M1397.63,174.61a164.17,164.17,0,0,1,58.81-59,162,162,0,0,1,81.92-22.21V69.67A187.82,187.82,0,0,0,1503.44,73a183.66,183.66,0,0,0-28.31,7.76c-3.12,1.12-6.23,2.34-9.3,3.64a184.55,184.55,0,0,0-24.37,12.48,186.89,186.89,0,0,0-75,86.86q-2,4.8-3.79,9.7A184.56,184.56,0,0,0,1355,221.7a188.59,188.59,0,0,0-3.19,34.66h23.77a162.2,162.2,0,0,1,22-81.75Z"/><path class="cls-1" d="M1336,202.54a208.32,208.32,0,0,1,27.8-61.7,210.89,210.89,0,0,1,58.81-58.94A208.48,208.48,0,0,1,1484.24,54h0A207.62,207.62,0,0,1,1510,48.77a211.1,211.1,0,0,1,28.4-1.94V23.06a236,236,0,0,0-24.58,1.29A234.3,234.3,0,0,0,1515,.14h-23.78a209.92,209.92,0,0,1-1.87,28.09,228.38,228.38,0,0,0-24.17,6.58A187.75,187.75,0,0,0,1468.4.14h-23.77a162.33,162.33,0,0,1-6.49,45.55A232.61,232.61,0,0,0,1406.42,64h0q2.34-4.57,4.36-9.33a139.35,139.35,0,0,0,11-54.53H1398a116.43,116.43,0,0,1-116.16,116.3v23.78a139.19,139.19,0,0,0,54.38-11q4.9-2.09,9.61-4.51h0a231,231,0,0,0-18.24,31.76,161.87,161.87,0,0,1-45.75,6.59v23.77a187.82,187.82,0,0,0,34.92-3.28,231.3,231.3,0,0,0-6.51,24.18h0a207.87,207.87,0,0,1-28.4,1.94v23.78a238.81,238.81,0,0,0,24.58-1.29,234.11,234.11,0,0,0-1.24,24.2H1329a209.54,209.54,0,0,1,7-53.82Z"/><path class="cls-1" d="M1724.53,0h-23.77a92.86,92.86,0,0,0,7.35,36.24,93.19,93.19,0,0,0,20,29.71,93.19,93.19,0,0,0,29.71,20,92.82,92.82,0,0,0,36.38,7.35V69.55A69.77,69.77,0,0,1,1724.53,0Z"/><path class="cls-1" d="M1771.15,0h-23.78a46.91,46.91,0,0,0,46.85,46.71V22.93A23.1,23.1,0,0,1,1771.15,0Z"/><path class="cls-1" d="M1677.92,0h-23.77a139.24,139.24,0,0,0,11,54.39q2.07,4.9,4.5,9.61a139.62,139.62,0,0,0,25.51,34.91,140.1,140.1,0,0,0,35.19,25.66c3.05,1.55,6.16,3,9.34,4.35a139.09,139.09,0,0,0,54.52,11V116.16A116.44,116.44,0,0,1,1677.92,0Z"/><path class="cls-1" d="M1604.09,190.56A93.21,93.21,0,0,0,1538,163.19V187a69.77,69.77,0,0,1,69.69,69.54h23.77a93.26,93.26,0,0,0-27.37-65.94Z"/><path class="cls-1" d="M1538,209.8v23.77a23.1,23.1,0,0,1,23.07,22.93h23.78A46.9,46.9,0,0,0,1538,209.8Z"/><path class="cls-1" d="M1712.47,140.73a164.1,164.1,0,0,1-59-58.81,161.68,161.68,0,0,1-15.63-36.16A162.71,162.71,0,0,1,1631.3,0h-23.77a187.93,187.93,0,0,0,3.28,34.93,184.64,184.64,0,0,0,7.75,28.3q1.7,4.7,3.64,9.3a185.82,185.82,0,0,0,12.49,24.37,187,187,0,0,0,27.52,35,187,187,0,0,0,35.32,27.73,185.82,185.82,0,0,0,24,12.27q4.8,2,9.7,3.79a184.56,184.56,0,0,0,28.31,7.69,187.64,187.64,0,0,0,34.66,3.2V162.77a162.31,162.31,0,0,1-45.54-6.48A161.2,161.2,0,0,1,1712.47,140.73Z"/><path class="cls-1" d="M1740.4,202.38a208.27,208.27,0,0,1-26.74-9.1,207.8,207.8,0,0,1-35-18.7,211,211,0,0,1-58.94-58.8A208.28,208.28,0,0,1,1601,80.85a205.82,205.82,0,0,1-9.16-26.73h0a206,206,0,0,1-5.19-25.71A209.73,209.73,0,0,1,1584.69,0h-23.77a233.31,233.31,0,0,0,1.29,24.58A237.28,237.28,0,0,0,1538,23.35V47.12A210,210,0,0,1,1566.09,49a228.21,228.21,0,0,0,6.58,24.16A187.75,187.75,0,0,0,1538,70V93.74a162.38,162.38,0,0,1,45.55,6.48,232,232,0,0,0,18.31,31.72h0q-4.58-2.34-9.33-4.35a139.18,139.18,0,0,0-54.53-11v23.78A116.43,116.43,0,0,1,1654.3,256.5h23.78a139.37,139.37,0,0,0-11-54.38q-2.08-4.91-4.51-9.61h0a230.92,230.92,0,0,0,31.76,18.23,162.64,162.64,0,0,1,6.59,45.75h23.77a187.82,187.82,0,0,0-3.28-34.92,225.83,225.83,0,0,0,24.18,6.51h0a209.58,209.58,0,0,1,1.94,28.4h23.78a238.62,238.62,0,0,0-1.29-24.57,236.94,236.94,0,0,0,24.2,1.23V209.39a209.77,209.77,0,0,1-28.08-1.88A208.19,208.19,0,0,1,1740.4,202.38Z"/><path class="cls-1" d="M1913.22,256V228.35a140.63,140.63,0,0,0-2.79,27.65v.36h2.79Z"/><path class="cls-1" d="M1859.8,66.23a93.17,93.17,0,0,0,20-29.7A93,93,0,0,0,1887.18.14H1863.4a69.77,69.77,0,0,1-69.54,69.69V93.6a93.06,93.06,0,0,0,36.24-7.34A93.17,93.17,0,0,0,1859.8,66.23Z"/><path class="cls-1" d="M1840.56.14h-23.77a23.09,23.09,0,0,1-22.93,23.07V47A46.9,46.9,0,0,0,1840.56.14Z"/><path class="cls-1" d="M1913.22,129.86v38.89c-1.24,1.92-2.44,3.88-3.59,5.86a162.2,162.2,0,0,0-22,81.75h-23.77V256A188.38,188.38,0,0,1,1867,221.7a184.75,184.75,0,0,1,7.69-28.3q1.75-4.89,3.79-9.71a188.41,188.41,0,0,1,12.27-24A186.23,186.23,0,0,1,1913.22,129.86Z"/><path class="cls-1" d="M1913.22.15V98.21a210.34,210.34,0,0,0-37.44,42.64A208.6,208.6,0,0,0,1841,256.36H1817.2V256a233.39,233.39,0,0,1,1.24-23.85,233.31,233.31,0,0,1-24.58,1.29V209.68a209.47,209.47,0,0,0,28.4-2h0a231.12,231.12,0,0,1,6.51-24.17,187.82,187.82,0,0,1-34.92,3.27V163.06a162.22,162.22,0,0,0,45.75-6.58,230.4,230.4,0,0,1,18.24-31.76h0c-3.13,1.61-6.34,3.12-9.61,4.5a139.19,139.19,0,0,1-54.38,11V116.45A116.44,116.44,0,0,0,1910,.15Z"/><path class="cls-1" d="M1863.83,512.5h23.78a93.37,93.37,0,0,0-93.46-93.31V443A69.76,69.76,0,0,1,1863.83,512.5Z"/><path class="cls-1" d="M1817.22,512.5H1841a46.9,46.9,0,0,0-46.84-46.7v23.77A23.11,23.11,0,0,1,1817.22,512.5Z"/><path class="cls-1" d="M1913.22,512.51h-2.77a116.44,116.44,0,0,0-116.3-116.16V372.57a139.16,139.16,0,0,1,54.52,11c3.17,1.34,6.29,2.8,9.34,4.35a140.87,140.87,0,0,1,55.21,50.9Z"/><path class="cls-1" d="M1913.22,368.85v32.73a163.91,163.91,0,0,0-37.32-29.8,161.93,161.93,0,0,0-81.75-22V326a187.72,187.72,0,0,1,34.66,3.2,185.18,185.18,0,0,1,28.31,7.69q4.89,1.74,9.7,3.79a185.84,185.84,0,0,1,46.4,28.21Z"/><path class="cls-1" d="M1894,301.76q9.87,4.67,19.19,10.21v28.37c-1.17-.82-2.36-1.62-3.55-2.41a208.64,208.64,0,0,0-115.52-34.81V279.35a237.23,237.23,0,0,1,24.2,1.23,235.84,235.84,0,0,1-1.29-24.57h23.77v.35a211.07,211.07,0,0,0,2,28.05h0a225.66,225.66,0,0,1,24.17,6.51,187.9,187.9,0,0,1-3.27-34.92h23.77v.35A162.1,162.1,0,0,0,1894,301.76Z"/><path class="cls-1" d="M1913.22,256h-2.93a140.22,140.22,0,0,0,2.93,28.51V256Z"/><path class="cls-1" d="M1538,325.83V349.6a93.38,93.38,0,0,0,93.32-93.46h-23.77A69.77,69.77,0,0,1,1538,325.83Z"/><path class="cls-1" d="M1538,279.21V303a46.9,46.9,0,0,0,46.71-46.85h-23.77A23.1,23.1,0,0,1,1538,279.21Z"/><path class="cls-1" d="M1538,372.44v23.78a139.42,139.42,0,0,0,54.39-11c3.27-1.38,6.47-2.89,9.61-4.5A140.78,140.78,0,0,0,1662.57,320q2.34-4.58,4.35-9.33a139.16,139.16,0,0,0,11-54.52h-23.77A116.43,116.43,0,0,1,1538,372.44Z"/><path class="cls-1" d="M1728.56,446.27a93.26,93.26,0,0,0-27.37,66.09H1725a69.76,69.76,0,0,1,69.55-69.68V418.9a93.26,93.26,0,0,0-66,27.37Z"/><path class="cls-1" d="M1747.8,512.36h23.78a23.1,23.1,0,0,1,22.93-23.07V465.52A46.89,46.89,0,0,0,1747.8,512.36Z"/><path class="cls-1" d="M1678.73,337.89a163.94,163.94,0,0,1-58.81,58.95A162.06,162.06,0,0,1,1538,419.06v23.77a187,187,0,0,0,34.93-3.28,183.2,183.2,0,0,0,28.3-7.75q4.69-1.68,9.3-3.64a187,187,0,0,0,99.35-99.34c1.35-3.21,2.62-6.45,3.78-9.71a184.56,184.56,0,0,0,7.69-28.31,187.54,187.54,0,0,0,3.2-34.65h-23.77a162.06,162.06,0,0,1-22,81.74Z"/><path class="cls-1" d="M1740.39,310a208.32,208.32,0,0,1-27.8,61.7,211.33,211.33,0,0,1-58.81,58.95,208.62,208.62,0,0,1-34.93,18.78,206.15,206.15,0,0,1-26.72,9.15h0a209.68,209.68,0,0,1-54.13,7.12v23.78a235.74,235.74,0,0,0,24.58-1.3,237.43,237.43,0,0,0-1.23,24.21h23.77a210,210,0,0,1,1.88-28.09,229,229,0,0,0,24.17-6.57,187.65,187.65,0,0,0-3.21,34.66h23.78a162.38,162.38,0,0,1,6.48-45.55,229.36,229.36,0,0,0,31.72-18.31h0q-2.34,4.58-4.35,9.33a139.2,139.2,0,0,0-11,54.53h23.77a116.43,116.43,0,0,1,116.16-116.3V372.29a139.24,139.24,0,0,0-54.39,11c-3.27,1.38-6.47,2.89-9.61,4.5h0A230.4,230.4,0,0,0,1748.76,356a162.22,162.22,0,0,1,45.75-6.58V325.67a188.79,188.79,0,0,0-34.93,3.28,228.26,228.26,0,0,0,6.52-24.18h0a211.25,211.25,0,0,1,28.41-1.94V279.06a233.17,233.17,0,0,0-24.58,1.29,234.4,234.4,0,0,0,1.24-24.2h-23.78a209.88,209.88,0,0,1-1.88,28.08A206.18,206.18,0,0,1,1740.39,310Z"/><path class="cls-1" d="M1351.83,512.5h23.78a93.37,93.37,0,0,0-93.46-93.31V443A69.76,69.76,0,0,1,1351.83,512.5Z"/><path class="cls-1" d="M1305.22,512.5H1329a46.9,46.9,0,0,0-46.84-46.7v23.77A23.11,23.11,0,0,1,1305.22,512.5Z"/><path class="cls-1" d="M1398.45,512.5h23.77a139.19,139.19,0,0,0-11-54.38c-1.38-3.28-2.89-6.48-4.5-9.61a140.82,140.82,0,0,0-60.7-60.57q-4.58-2.34-9.34-4.36a139.16,139.16,0,0,0-54.52-11v23.77A116.44,116.44,0,0,1,1398.45,512.5Z"/><path class="cls-1" d="M1472.28,321.94a93.16,93.16,0,0,0,66.08,27.38V325.54A69.76,69.76,0,0,1,1468.68,256H1444.9a93.16,93.16,0,0,0,27.38,65.94Z"/><path class="cls-1" d="M1538.36,302.7V278.93A23.1,23.1,0,0,1,1515.29,256h-23.77A46.89,46.89,0,0,0,1538.36,302.7Z"/><path class="cls-1" d="M1363.9,371.77a164,164,0,0,1,58.94,58.82,161.8,161.8,0,0,1,22.22,81.91h23.77a187.82,187.82,0,0,0-3.27-34.92,184.8,184.8,0,0,0-7.76-28.31q-1.68-4.68-3.64-9.3a187.77,187.77,0,0,0-75.32-87.07,188.41,188.41,0,0,0-24-12.27q-4.82-2-9.7-3.79a186.33,186.33,0,0,0-28.31-7.69,188.59,188.59,0,0,0-34.66-3.19v23.77a162.2,162.2,0,0,1,81.75,22Z"/><path class="cls-1" d="M1336,310.12a208.49,208.49,0,0,1,61.71,27.8,211,211,0,0,1,58.94,58.81,208.62,208.62,0,0,1,18.78,34.93,206.15,206.15,0,0,1,9.15,26.72h0a206.14,206.14,0,0,1,5.18,25.72,209.47,209.47,0,0,1,2,28.4h23.77a238.81,238.81,0,0,0-1.29-24.58,234.26,234.26,0,0,0,24.2,1.24V465.39a209.88,209.88,0,0,1-28.08-1.88,228.38,228.38,0,0,0-6.58-24.17,187.72,187.72,0,0,0,34.66,3.2V418.77a162.39,162.39,0,0,1-45.55-6.49,231.51,231.51,0,0,0-18.3-31.72h0q4.56,2.34,9.33,4.36a139.12,139.12,0,0,0,54.52,11V372.16A116.44,116.44,0,0,1,1422.06,256h-23.77a139.19,139.19,0,0,0,11,54.38q2.07,4.9,4.51,9.61h0A230.51,230.51,0,0,0,1382,301.75a162.22,162.22,0,0,1-6.58-45.75h-23.77a187.82,187.82,0,0,0,3.27,34.92,230.46,230.46,0,0,0-24.17-6.51h0a209.61,209.61,0,0,1-2-28.41h-23.77a235.89,235.89,0,0,0,1.29,24.58,234.4,234.4,0,0,0-24.2-1.24v23.78a208.81,208.81,0,0,1,53.81,7Z"/><path class="cls-1" d="M1026,325.83V349.6a93.38,93.38,0,0,0,93.32-93.46h-23.77A69.77,69.77,0,0,1,1026,325.83Z"/><path class="cls-1" d="M1026,279.21V303a46.9,46.9,0,0,0,46.71-46.85h-23.77A23.1,23.1,0,0,1,1026,279.21Z"/><path class="cls-1" d="M1026,372.44v23.78a139.42,139.42,0,0,0,54.39-11c3.27-1.38,6.47-2.89,9.61-4.5A140.78,140.78,0,0,0,1150.57,320q2.34-4.58,4.35-9.33a139.16,139.16,0,0,0,11-54.52h-23.77A116.43,116.43,0,0,1,1026,372.44Z"/><path class="cls-1" d="M1216.56,446.27a93.26,93.26,0,0,0-27.37,66.09H1213a69.76,69.76,0,0,1,69.55-69.68V418.9a93.26,93.26,0,0,0-66,27.37Z"/><path class="cls-1" d="M1235.8,512.36h23.78a23.1,23.1,0,0,1,22.93-23.07V465.52A46.89,46.89,0,0,0,1235.8,512.36Z"/><path class="cls-1" d="M1166.73,337.89a163.94,163.94,0,0,1-58.81,58.95A162.06,162.06,0,0,1,1026,419.06v23.77a187,187,0,0,0,34.93-3.28,183.2,183.2,0,0,0,28.3-7.75q4.69-1.68,9.3-3.64a187,187,0,0,0,99.35-99.34c1.35-3.21,2.62-6.45,3.78-9.71a184.56,184.56,0,0,0,7.69-28.31,187.54,187.54,0,0,0,3.2-34.65h-23.77a162.06,162.06,0,0,1-22,81.74Z"/><path class="cls-1" d="M1228.39,310a208.32,208.32,0,0,1-27.8,61.7,211.33,211.33,0,0,1-58.81,58.95,208.62,208.62,0,0,1-34.93,18.78,206.15,206.15,0,0,1-26.72,9.15h0a209.68,209.68,0,0,1-54.13,7.12v23.78a235.74,235.74,0,0,0,24.58-1.3,237.43,237.43,0,0,0-1.23,24.21h23.77a210,210,0,0,1,1.88-28.09,229,229,0,0,0,24.17-6.57,187.65,187.65,0,0,0-3.21,34.66h23.78a162.38,162.38,0,0,1,6.48-45.55,229.36,229.36,0,0,0,31.72-18.31h0q-2.34,4.58-4.35,9.33a139.2,139.2,0,0,0-11,54.53h23.77a116.43,116.43,0,0,1,116.16-116.3V372.29a139.24,139.24,0,0,0-54.39,11c-3.27,1.38-6.47,2.89-9.61,4.5h0A230.4,230.4,0,0,0,1236.76,356a162.22,162.22,0,0,1,45.75-6.58V325.67a188.79,188.79,0,0,0-34.93,3.28,228.26,228.26,0,0,0,6.52-24.18h0a211.25,211.25,0,0,1,28.41-1.94V279.06a233.17,233.17,0,0,0-24.58,1.29,234.4,234.4,0,0,0,1.24-24.2h-23.78a209.88,209.88,0,0,1-1.88,28.08A206.18,206.18,0,0,1,1228.39,310Z"/><path class="cls-1" d="M838.83,512.5h23.78a93.37,93.37,0,0,0-93.46-93.31V443A69.76,69.76,0,0,1,838.83,512.5Z"/><path class="cls-1" d="M792.22,512.5H816a46.9,46.9,0,0,0-46.84-46.7v23.77A23.11,23.11,0,0,1,792.22,512.5Z"/><path class="cls-1" d="M885.45,512.5h23.77a139.19,139.19,0,0,0-11-54.38c-1.38-3.28-2.89-6.48-4.5-9.61A140.82,140.82,0,0,0,833,387.94q-4.57-2.34-9.34-4.36a139.16,139.16,0,0,0-54.52-11v23.77A116.44,116.44,0,0,1,885.45,512.5Z"/><path class="cls-1" d="M959.28,321.94a93.16,93.16,0,0,0,66.08,27.38V325.54A69.76,69.76,0,0,1,955.68,256H931.9a93.16,93.16,0,0,0,27.38,65.94Z"/><path class="cls-1" d="M1025.36,302.7V278.93A23.1,23.1,0,0,1,1002.29,256H978.52A46.89,46.89,0,0,0,1025.36,302.7Z"/><path class="cls-1" d="M850.9,371.77a164,164,0,0,1,58.94,58.82,161.8,161.8,0,0,1,22.22,81.91h23.77a187.82,187.82,0,0,0-3.27-34.92,184.8,184.8,0,0,0-7.76-28.31q-1.68-4.68-3.64-9.3a187.77,187.77,0,0,0-75.32-87.07,188.41,188.41,0,0,0-24-12.27q-4.82-2-9.7-3.79a186.33,186.33,0,0,0-28.31-7.69A188.59,188.59,0,0,0,769.15,326v23.77a162.2,162.2,0,0,1,81.75,22Z"/><path class="cls-1" d="M823,310.12a208.49,208.49,0,0,1,61.71,27.8,211,211,0,0,1,58.94,58.81,208.62,208.62,0,0,1,18.78,34.93,206.15,206.15,0,0,1,9.15,26.72h0a206.14,206.14,0,0,1,5.18,25.72,209.47,209.47,0,0,1,1.95,28.4h23.77a238.81,238.81,0,0,0-1.29-24.58,234.26,234.26,0,0,0,24.2,1.24V465.39a209.88,209.88,0,0,1-28.08-1.88,228.38,228.38,0,0,0-6.58-24.17,187.72,187.72,0,0,0,34.66,3.2V418.77a162.39,162.39,0,0,1-45.55-6.49,231.51,231.51,0,0,0-18.3-31.72h0q4.56,2.34,9.33,4.36a139.12,139.12,0,0,0,54.52,11V372.16A116.44,116.44,0,0,1,909.06,256H885.29a139.19,139.19,0,0,0,11,54.38q2.07,4.9,4.51,9.61h0A230.51,230.51,0,0,0,869,301.75,162.22,162.22,0,0,1,862.45,256H838.68A187.82,187.82,0,0,0,842,290.92a230.46,230.46,0,0,0-24.17-6.51h0A209.61,209.61,0,0,1,815.83,256H792.06a235.89,235.89,0,0,0,1.29,24.58,234.4,234.4,0,0,0-24.2-1.24v23.78a208.81,208.81,0,0,1,53.81,7Z"/><path class="cls-1" d="M513,325.83V349.6a93.38,93.38,0,0,0,93.32-93.46H582.55A69.77,69.77,0,0,1,513,325.83Z"/><path class="cls-1" d="M513,279.21V303a46.9,46.9,0,0,0,46.71-46.85H535.94A23.1,23.1,0,0,1,513,279.21Z"/><path class="cls-1" d="M513,372.44v23.78a139.42,139.42,0,0,0,54.39-11c3.27-1.38,6.47-2.89,9.61-4.5A140.78,140.78,0,0,0,637.57,320q2.34-4.58,4.35-9.33a139.16,139.16,0,0,0,11-54.52H629.17A116.43,116.43,0,0,1,513,372.44Z"/><path class="cls-1" d="M703.56,446.27a93.26,93.26,0,0,0-27.37,66.09H700a69.76,69.76,0,0,1,69.55-69.68V418.9a93.26,93.26,0,0,0-66,27.37Z"/><path class="cls-1" d="M722.8,512.36h23.78a23.1,23.1,0,0,1,22.93-23.07V465.52A46.89,46.89,0,0,0,722.8,512.36Z"/><path class="cls-1" d="M653.73,337.89a163.94,163.94,0,0,1-58.81,58.95A162.06,162.06,0,0,1,513,419.06v23.77a187,187,0,0,0,34.93-3.28,183.2,183.2,0,0,0,28.3-7.75q4.69-1.68,9.3-3.64a187,187,0,0,0,99.35-99.34c1.35-3.21,2.62-6.45,3.78-9.71a184.56,184.56,0,0,0,7.69-28.31,187.54,187.54,0,0,0,3.2-34.65H675.78a162.06,162.06,0,0,1-22,81.74Z"/><path class="cls-1" d="M715.39,310a208.32,208.32,0,0,1-27.8,61.7,211.33,211.33,0,0,1-58.81,58.95,208.62,208.62,0,0,1-34.93,18.78,206.15,206.15,0,0,1-26.72,9.15h0A209.68,209.68,0,0,1,513,465.67v23.78a235.74,235.74,0,0,0,24.58-1.3,237.43,237.43,0,0,0-1.23,24.21h23.77A210,210,0,0,1,562,484.27a229,229,0,0,0,24.17-6.57A187.65,187.65,0,0,0,583,512.36h23.78a162.38,162.38,0,0,1,6.48-45.55,229.36,229.36,0,0,0,31.72-18.31h0q-2.34,4.58-4.35,9.33a139.2,139.2,0,0,0-11,54.53h23.77a116.43,116.43,0,0,1,116.16-116.3V372.29a139.24,139.24,0,0,0-54.39,11c-3.27,1.38-6.47,2.89-9.61,4.5h0A230.4,230.4,0,0,0,723.76,356a162.22,162.22,0,0,1,45.75-6.58V325.67A188.79,188.79,0,0,0,734.58,329a228.26,228.26,0,0,0,6.52-24.18h0a211.25,211.25,0,0,1,28.41-1.94V279.06a233.17,233.17,0,0,0-24.58,1.29,234.4,234.4,0,0,0,1.24-24.2H722.39a209.88,209.88,0,0,1-1.88,28.08A206.18,206.18,0,0,1,715.39,310Z"/><path class="cls-1" d="M325.83,512.5h23.78a93.37,93.37,0,0,0-93.46-93.31V443A69.76,69.76,0,0,1,325.83,512.5Z"/><path class="cls-1" d="M279.22,512.5H303a46.9,46.9,0,0,0-46.84-46.7v23.77A23.11,23.11,0,0,1,279.22,512.5Z"/><path class="cls-1" d="M372.45,512.5h23.77a139.19,139.19,0,0,0-11-54.38c-1.38-3.28-2.89-6.48-4.5-9.61A140.82,140.82,0,0,0,320,387.94q-4.58-2.34-9.34-4.36a139.16,139.16,0,0,0-54.52-11v23.77A116.44,116.44,0,0,1,372.45,512.5Z"/><path class="cls-1" d="M446.28,321.94a93.16,93.16,0,0,0,66.08,27.38V325.54A69.76,69.76,0,0,1,442.68,256H418.9a93.16,93.16,0,0,0,27.38,65.94Z"/><path class="cls-1" d="M512.36,302.7V278.93A23.1,23.1,0,0,1,489.29,256H465.52A46.89,46.89,0,0,0,512.36,302.7Z"/><path class="cls-1" d="M337.9,371.77a164,164,0,0,1,58.94,58.82,161.8,161.8,0,0,1,22.22,81.91h23.77a187.82,187.82,0,0,0-3.27-34.92,184.8,184.8,0,0,0-7.76-28.31q-1.68-4.68-3.64-9.3a187.77,187.77,0,0,0-75.32-87.07,188.41,188.41,0,0,0-24-12.27q-4.81-2-9.7-3.79a186.33,186.33,0,0,0-28.31-7.69A188.59,188.59,0,0,0,256.15,326v23.77a162.2,162.2,0,0,1,81.75,22Z"/><path class="cls-1" d="M310,310.12a208.49,208.49,0,0,1,61.71,27.8,211,211,0,0,1,58.94,58.81,208.62,208.62,0,0,1,18.78,34.93,206.15,206.15,0,0,1,9.15,26.72h0a206.14,206.14,0,0,1,5.18,25.72,209.47,209.47,0,0,1,1.95,28.4h23.77a238.81,238.81,0,0,0-1.29-24.58,234.26,234.26,0,0,0,24.2,1.24V465.39a209.88,209.88,0,0,1-28.08-1.88,228.38,228.38,0,0,0-6.58-24.17,187.72,187.72,0,0,0,34.66,3.2V418.77a162.39,162.39,0,0,1-45.55-6.49,231.51,231.51,0,0,0-18.3-31.72h0q4.56,2.34,9.33,4.36a139.12,139.12,0,0,0,54.52,11V372.16A116.44,116.44,0,0,1,396.06,256H372.29a139.19,139.19,0,0,0,11,54.38q2.07,4.9,4.51,9.61h0A230.51,230.51,0,0,0,356,301.75,162.22,162.22,0,0,1,349.45,256H325.68A187.82,187.82,0,0,0,329,290.92a230.46,230.46,0,0,0-24.17-6.51h0A209.61,209.61,0,0,1,302.83,256H279.06a235.89,235.89,0,0,0,1.29,24.58,234.4,234.4,0,0,0-24.2-1.24v23.78a208.81,208.81,0,0,1,53.81,7Z"/><path class="cls-1" d="M0,325.83V349.6a93,93,0,0,0,36.24-7.34,93.21,93.21,0,0,0,29.71-20,93.14,93.14,0,0,0,20-29.7,92.84,92.84,0,0,0,7.35-36.39H69.55A69.77,69.77,0,0,1,0,325.83Z"/><path class="cls-1" d="M0,279.21V303a46.9,46.9,0,0,0,46.71-46.85H22.94A23.1,23.1,0,0,1,0,279.21Z"/><path class="cls-1" d="M0,372.44v23.78a139.42,139.42,0,0,0,54.39-11c3.27-1.38,6.47-2.89,9.61-4.5a139.91,139.91,0,0,0,34.91-25.52A139.67,139.67,0,0,0,124.57,320q2.34-4.58,4.35-9.33a139.16,139.16,0,0,0,11-54.52H116.17A116.43,116.43,0,0,1,0,372.44Z"/><path class="cls-1" d="M190.56,446.27a93.26,93.26,0,0,0-27.37,66.09H187a69.76,69.76,0,0,1,69.55-69.68V418.9a93.26,93.26,0,0,0-65.95,27.37Z"/><path class="cls-1" d="M209.8,512.36h23.78a23.1,23.1,0,0,1,22.93-23.07V465.52A46.89,46.89,0,0,0,209.8,512.36Z"/><path class="cls-1" d="M140.73,337.89a163.94,163.94,0,0,1-58.81,58.95,161.49,161.49,0,0,1-36.16,15.63A162,162,0,0,1,0,419.06v23.77a187,187,0,0,0,34.93-3.28,183.2,183.2,0,0,0,28.3-7.75q4.7-1.68,9.3-3.64A186.36,186.36,0,0,0,96.9,415.68a186.74,186.74,0,0,0,35-27.53,186.9,186.9,0,0,0,27.73-35.31,187.18,187.18,0,0,0,12.28-24c1.35-3.21,2.62-6.45,3.78-9.71a184.56,184.56,0,0,0,7.69-28.31,187.54,187.54,0,0,0,3.2-34.65H162.78a161.83,161.83,0,0,1-6.49,45.53A161.2,161.2,0,0,1,140.73,337.89Z"/><path class="cls-1" d="M202.39,310a207.75,207.75,0,0,1-9.1,26.74,209.25,209.25,0,0,1-18.7,35,211.33,211.33,0,0,1-58.81,58.95,208.62,208.62,0,0,1-34.93,18.78,206.15,206.15,0,0,1-26.72,9.15h0a206.14,206.14,0,0,1-25.72,5.18A208,208,0,0,1,0,465.67v23.78a235.74,235.74,0,0,0,24.58-1.3,237.43,237.43,0,0,0-1.23,24.21H47.12A210,210,0,0,1,49,484.27a229,229,0,0,0,24.17-6.57A187.65,187.65,0,0,0,70,512.36H93.74a162.38,162.38,0,0,1,6.48-45.55,229.36,229.36,0,0,0,31.72-18.31h0q-2.34,4.58-4.35,9.33a139.2,139.2,0,0,0-11,54.53h23.77a116.43,116.43,0,0,1,116.16-116.3V372.29a139.24,139.24,0,0,0-54.39,11c-3.27,1.38-6.47,2.89-9.61,4.5h0A230.4,230.4,0,0,0,210.76,356a162.22,162.22,0,0,1,45.75-6.58V325.67A188.79,188.79,0,0,0,221.58,329a228.26,228.26,0,0,0,6.52-24.18h0a211.25,211.25,0,0,1,28.41-1.94V279.06a233.17,233.17,0,0,0-24.58,1.29,234.4,234.4,0,0,0,1.24-24.2H209.39a209.88,209.88,0,0,1-1.88,28.08A206.18,206.18,0,0,1,202.39,310Z"/><path class="cls-1" d="M186.53,513H162.76a93.4,93.4,0,0,0,93.46,93.32V582.55A69.77,69.77,0,0,1,186.53,513Z"/><path class="cls-1" d="M233.15,513H209.37a46.91,46.91,0,0,0,46.85,46.71V535.93A23.1,23.1,0,0,1,233.15,513Z"/><path class="cls-1" d="M139.92,513H116.15a139.24,139.24,0,0,0,11,54.39q2.07,4.9,4.5,9.61a140.68,140.68,0,0,0,60.7,60.57c3,1.55,6.16,3,9.34,4.35a139.09,139.09,0,0,0,54.52,11V629.16A116.44,116.44,0,0,1,139.92,513Z"/><path class="cls-1" d="M66.09,703.56a93.14,93.14,0,0,0-29.7-20A92.87,92.87,0,0,0,0,676.19V700A69.77,69.77,0,0,1,69.69,769.5H93.46a92.81,92.81,0,0,0-7.35-36.23A93,93,0,0,0,66.09,703.56Z"/><path class="cls-1" d="M0,722.8v23.77A23.1,23.1,0,0,1,23.07,769.5H46.85A46.9,46.9,0,0,0,0,722.8Z"/><path class="cls-1" d="M174.47,653.73a164.1,164.1,0,0,1-58.95-58.81A162.06,162.06,0,0,1,93.3,513H69.53a187.93,187.93,0,0,0,3.28,34.93,184.64,184.64,0,0,0,7.75,28.3q1.69,4.69,3.64,9.3a186.91,186.91,0,0,0,99.35,99.34q4.8,2,9.7,3.79a184.56,184.56,0,0,0,28.31,7.69,187.64,187.64,0,0,0,34.66,3.2V675.77a161.93,161.93,0,0,1-81.75-22Z"/><path class="cls-1" d="M202.4,715.38a208.32,208.32,0,0,1-61.7-27.8,211,211,0,0,1-58.94-58.8A208.28,208.28,0,0,1,63,593.85a205.82,205.82,0,0,1-9.16-26.73h0a206,206,0,0,1-5.19-25.71A209.73,209.73,0,0,1,46.69,513H22.92a233.31,233.31,0,0,0,1.29,24.58A237.28,237.28,0,0,0,0,536.35v23.77A210,210,0,0,1,28.09,562a228.21,228.21,0,0,0,6.58,24.16A187.75,187.75,0,0,0,0,583v23.78a162.38,162.38,0,0,1,45.55,6.48,232,232,0,0,0,18.31,31.72h0q-4.57-2.34-9.33-4.35A139.18,139.18,0,0,0,0,629.57v23.78A116.43,116.43,0,0,1,116.3,769.5h23.78a139.37,139.37,0,0,0-11-54.38q-2.08-4.9-4.51-9.61h0a230.92,230.92,0,0,0,31.76,18.23,162.64,162.64,0,0,1,6.59,45.75h23.77a187.82,187.82,0,0,0-3.28-34.92,225.83,225.83,0,0,0,24.18,6.51h0a209.58,209.58,0,0,1,1.94,28.4h23.78A238.62,238.62,0,0,0,232,744.93a236.94,236.94,0,0,0,24.2,1.23V722.39a209.54,209.54,0,0,1-53.82-7Z"/><path class="cls-1" d="M512.36,699.68V675.9A93.4,93.4,0,0,0,419,769.36h23.78A69.75,69.75,0,0,1,512.36,699.68Z"/><path class="cls-1" d="M512.36,746.29V722.52a46.89,46.89,0,0,0-46.7,46.84h23.77A23.1,23.1,0,0,1,512.36,746.29Z"/><path class="cls-1" d="M512.36,653.06V629.29a139.19,139.19,0,0,0-54.38,11q-4.92,2.07-9.61,4.5a140.68,140.68,0,0,0-60.57,60.7q-2.34,4.57-4.36,9.34a139.12,139.12,0,0,0-11,54.52H396.2A116.44,116.44,0,0,1,512.36,653.06Z"/><path class="cls-1" d="M321.8,579.23a93.16,93.16,0,0,0,27.38-66.09H325.4a69.77,69.77,0,0,1-69.54,69.69V606.6a93.1,93.1,0,0,0,65.94-27.37Z"/><path class="cls-1" d="M302.56,513.14H278.79a23.09,23.09,0,0,1-22.93,23.07V560A46.9,46.9,0,0,0,302.56,513.14Z"/><path class="cls-1" d="M371.63,687.61a164.17,164.17,0,0,1,58.81-59,162,162,0,0,1,81.92-22.21V582.67A187.82,187.82,0,0,0,477.44,586a183.66,183.66,0,0,0-28.31,7.76c-3.12,1.12-6.23,2.34-9.3,3.64a184.55,184.55,0,0,0-24.37,12.48,186.89,186.89,0,0,0-75,86.86q-2,4.8-3.79,9.7A184.56,184.56,0,0,0,329,734.7a188.59,188.59,0,0,0-3.19,34.66h23.77a162.2,162.2,0,0,1,22-81.75Z"/><path class="cls-1" d="M310,715.54a208.32,208.32,0,0,1,27.8-61.7,210.89,210.89,0,0,1,58.81-58.94A208.48,208.48,0,0,1,458.24,567h0A207.62,207.62,0,0,1,484,561.77a211.1,211.1,0,0,1,28.4-1.94V536.06a236,236,0,0,0-24.58,1.29A234.3,234.3,0,0,0,489,513.14H465.24a209.92,209.92,0,0,1-1.87,28.09,228.38,228.38,0,0,0-24.17,6.58,187.75,187.75,0,0,0,3.2-34.67H418.63a162.33,162.33,0,0,1-6.49,45.55A232.61,232.61,0,0,0,380.42,577h0q2.34-4.57,4.36-9.33a139.35,139.35,0,0,0,11-54.53H372a116.43,116.43,0,0,1-116.16,116.3v23.78a139.19,139.19,0,0,0,54.38-11q4.9-2.09,9.61-4.51h0a231,231,0,0,0-18.24,31.76,161.87,161.87,0,0,1-45.75,6.59v23.77a187.82,187.82,0,0,0,34.92-3.28,231.3,231.3,0,0,0-6.51,24.18h0a207.87,207.87,0,0,1-28.4,1.94v23.78a238.81,238.81,0,0,0,24.58-1.29,234.11,234.11,0,0,0-1.24,24.2H303a209.54,209.54,0,0,1,7-53.82Z"/><path class="cls-1" d="M699.53,513H675.76a93.4,93.4,0,0,0,93.46,93.32V582.55A69.77,69.77,0,0,1,699.53,513Z"/><path class="cls-1" d="M746.15,513H722.37a46.91,46.91,0,0,0,46.85,46.71V535.93A23.1,23.1,0,0,1,746.15,513Z"/><path class="cls-1" d="M652.92,513H629.15a139.24,139.24,0,0,0,11,54.39q2.07,4.9,4.5,9.61a140.68,140.68,0,0,0,60.7,60.57c3,1.55,6.16,3,9.34,4.35a139.09,139.09,0,0,0,54.52,11V629.16A116.44,116.44,0,0,1,652.92,513Z"/><path class="cls-1" d="M579.09,703.56A93.21,93.21,0,0,0,513,676.19V700a69.77,69.77,0,0,1,69.69,69.54h23.77a93.26,93.26,0,0,0-27.37-65.94Z"/><path class="cls-1" d="M513,722.8v23.77a23.1,23.1,0,0,1,23.07,22.93h23.78A46.9,46.9,0,0,0,513,722.8Z"/><path class="cls-1" d="M687.47,653.73a164.1,164.1,0,0,1-59-58.81A162.06,162.06,0,0,1,606.3,513H582.53a187.93,187.93,0,0,0,3.28,34.93,184.64,184.64,0,0,0,7.75,28.3q1.7,4.69,3.64,9.3a186.91,186.91,0,0,0,99.35,99.34q4.8,2,9.7,3.79a184.56,184.56,0,0,0,28.31,7.69,187.64,187.64,0,0,0,34.66,3.2V675.77a161.93,161.93,0,0,1-81.75-22Z"/><path class="cls-1" d="M715.4,715.38a208.32,208.32,0,0,1-61.7-27.8,211,211,0,0,1-58.94-58.8A208.28,208.28,0,0,1,576,593.85a205.82,205.82,0,0,1-9.16-26.73h0a206,206,0,0,1-5.19-25.71A209.73,209.73,0,0,1,559.69,513H535.92a233.31,233.31,0,0,0,1.29,24.58A237.28,237.28,0,0,0,513,536.35v23.77A210,210,0,0,1,541.09,562a228.21,228.21,0,0,0,6.58,24.16A187.75,187.75,0,0,0,513,583v23.78a162.38,162.38,0,0,1,45.55,6.48,232,232,0,0,0,18.31,31.72h0q-4.58-2.34-9.33-4.35a139.18,139.18,0,0,0-54.53-11v23.78A116.43,116.43,0,0,1,629.3,769.5h23.78a139.37,139.37,0,0,0-11-54.38q-2.09-4.9-4.51-9.61h0a230.92,230.92,0,0,0,31.76,18.23,162.64,162.64,0,0,1,6.59,45.75h23.77a187.82,187.82,0,0,0-3.28-34.92,225.83,225.83,0,0,0,24.18,6.51h0a209.58,209.58,0,0,1,1.94,28.4h23.78A238.62,238.62,0,0,0,745,744.93a236.94,236.94,0,0,0,24.2,1.23V722.39a209.54,209.54,0,0,1-53.82-7Z"/><path class="cls-1" d="M1025.36,699.68V675.9A93.4,93.4,0,0,0,932,769.36h23.78A69.75,69.75,0,0,1,1025.36,699.68Z"/><path class="cls-1" d="M1025.36,746.29V722.52a46.89,46.89,0,0,0-46.7,46.84h23.77A23.1,23.1,0,0,1,1025.36,746.29Z"/><path class="cls-1" d="M1025.36,653.06V629.29a139.19,139.19,0,0,0-54.38,11q-4.92,2.07-9.61,4.5a140.68,140.68,0,0,0-60.57,60.7q-2.34,4.57-4.36,9.34a139.12,139.12,0,0,0-11,54.52H909.2A116.44,116.44,0,0,1,1025.36,653.06Z"/><path class="cls-1" d="M834.8,579.23a93.16,93.16,0,0,0,27.38-66.09H838.4a69.77,69.77,0,0,1-69.54,69.69V606.6a93.1,93.1,0,0,0,65.94-27.37Z"/><path class="cls-1" d="M815.56,513.14H791.79a23.09,23.09,0,0,1-22.93,23.07V560A46.9,46.9,0,0,0,815.56,513.14Z"/><path class="cls-1" d="M884.63,687.61a164.17,164.17,0,0,1,58.81-59,162,162,0,0,1,81.92-22.21V582.67A187.82,187.82,0,0,0,990.44,586a183.66,183.66,0,0,0-28.31,7.76c-3.12,1.12-6.23,2.34-9.3,3.64a184.55,184.55,0,0,0-24.37,12.48,186.89,186.89,0,0,0-75,86.86q-2,4.8-3.79,9.7A184.56,184.56,0,0,0,842,734.7a188.59,188.59,0,0,0-3.19,34.66h23.77a162.2,162.2,0,0,1,22-81.75Z"/><path class="cls-1" d="M823,715.54a208.32,208.32,0,0,1,27.8-61.7,210.89,210.89,0,0,1,58.81-58.94A208.48,208.48,0,0,1,971.24,567h0A207.62,207.62,0,0,1,997,561.77a211.1,211.1,0,0,1,28.4-1.94V536.06a236,236,0,0,0-24.58,1.29,234.3,234.3,0,0,0,1.24-24.21H978.24a209.92,209.92,0,0,1-1.87,28.09,228.38,228.38,0,0,0-24.17,6.58,187.75,187.75,0,0,0,3.2-34.67H931.63a162.33,162.33,0,0,1-6.49,45.55A232.61,232.61,0,0,0,893.42,577h0q2.34-4.57,4.36-9.33a139.35,139.35,0,0,0,11-54.53H885a116.43,116.43,0,0,1-116.16,116.3v23.78a139.19,139.19,0,0,0,54.38-11q4.9-2.09,9.61-4.51h0a231,231,0,0,0-18.24,31.76,161.87,161.87,0,0,1-45.75,6.59v23.77a187.82,187.82,0,0,0,34.92-3.28,231.3,231.3,0,0,0-6.51,24.18h0a207.87,207.87,0,0,1-28.4,1.94v23.78a238.81,238.81,0,0,0,24.58-1.29,234.11,234.11,0,0,0-1.24,24.2H816a209.54,209.54,0,0,1,7-53.82Z"/><path class="cls-1" d="M1212.53,513h-23.77a93.4,93.4,0,0,0,93.46,93.32V582.55A69.77,69.77,0,0,1,1212.53,513Z"/><path class="cls-1" d="M1259.15,513h-23.78a46.91,46.91,0,0,0,46.85,46.71V535.93A23.1,23.1,0,0,1,1259.15,513Z"/><path class="cls-1" d="M1165.92,513h-23.77a139.24,139.24,0,0,0,11,54.39q2.07,4.9,4.5,9.61a140.68,140.68,0,0,0,60.7,60.57c3.05,1.55,6.16,3,9.34,4.35a139.09,139.09,0,0,0,54.52,11V629.16A116.44,116.44,0,0,1,1165.92,513Z"/><path class="cls-1" d="M1092.09,703.56A93.21,93.21,0,0,0,1026,676.19V700a69.77,69.77,0,0,1,69.69,69.54h23.77a93.26,93.26,0,0,0-27.37-65.94Z"/><path class="cls-1" d="M1026,722.8v23.77a23.1,23.1,0,0,1,23.07,22.93h23.78A46.9,46.9,0,0,0,1026,722.8Z"/><path class="cls-1" d="M1200.47,653.73a164.1,164.1,0,0,1-59-58.81A162.06,162.06,0,0,1,1119.3,513h-23.77a187.93,187.93,0,0,0,3.28,34.93,184.64,184.64,0,0,0,7.75,28.3q1.7,4.69,3.64,9.3a186.91,186.91,0,0,0,99.35,99.34q4.8,2,9.7,3.79a184.56,184.56,0,0,0,28.31,7.69,187.64,187.64,0,0,0,34.66,3.2V675.77a161.93,161.93,0,0,1-81.75-22Z"/><path class="cls-1" d="M1228.4,715.38a208.32,208.32,0,0,1-61.7-27.8,211,211,0,0,1-58.94-58.8A208.28,208.28,0,0,1,1089,593.85a205.82,205.82,0,0,1-9.16-26.73h0a206,206,0,0,1-5.19-25.71,209.73,209.73,0,0,1-1.94-28.41h-23.77a233.31,233.31,0,0,0,1.29,24.58,237.28,237.28,0,0,0-24.21-1.23v23.77a210,210,0,0,1,28.09,1.88,228.21,228.21,0,0,0,6.58,24.16A187.75,187.75,0,0,0,1026,583v23.78a162.38,162.38,0,0,1,45.55,6.48,232,232,0,0,0,18.31,31.72h0q-4.58-2.34-9.33-4.35a139.18,139.18,0,0,0-54.53-11v23.78A116.43,116.43,0,0,1,1142.3,769.5h23.78a139.37,139.37,0,0,0-11-54.38q-2.08-4.9-4.51-9.61h0a230.92,230.92,0,0,0,31.76,18.23,162.64,162.64,0,0,1,6.59,45.75h23.77a187.82,187.82,0,0,0-3.28-34.92,225.83,225.83,0,0,0,24.18,6.51h0a209.58,209.58,0,0,1,1.94,28.4h23.78a238.62,238.62,0,0,0-1.29-24.57,236.94,236.94,0,0,0,24.2,1.23V722.39a209.54,209.54,0,0,1-53.82-7Z"/><path class="cls-1" d="M1538.36,699.68V675.9A93.4,93.4,0,0,0,1445,769.36h23.78A69.75,69.75,0,0,1,1538.36,699.68Z"/><path class="cls-1" d="M1538.36,746.29V722.52a46.89,46.89,0,0,0-46.7,46.84h23.77A23.1,23.1,0,0,1,1538.36,746.29Z"/><path class="cls-1" d="M1538.36,653.06V629.29a139.19,139.19,0,0,0-54.38,11q-4.92,2.07-9.61,4.5a140.68,140.68,0,0,0-60.57,60.7q-2.34,4.57-4.36,9.34a139.12,139.12,0,0,0-11,54.52h23.77A116.44,116.44,0,0,1,1538.36,653.06Z"/><path class="cls-1" d="M1347.8,579.23a93.16,93.16,0,0,0,27.38-66.09H1351.4a69.77,69.77,0,0,1-69.54,69.69V606.6a93.1,93.1,0,0,0,65.94-27.37Z"/><path class="cls-1" d="M1328.56,513.14h-23.77a23.09,23.09,0,0,1-22.93,23.07V560A46.9,46.9,0,0,0,1328.56,513.14Z"/><path class="cls-1" d="M1397.63,687.61a164.17,164.17,0,0,1,58.81-59,162,162,0,0,1,81.92-22.21V582.67a187.82,187.82,0,0,0-34.92,3.28,183.66,183.66,0,0,0-28.31,7.76c-3.12,1.12-6.23,2.34-9.3,3.64a184.55,184.55,0,0,0-24.37,12.48,186.89,186.89,0,0,0-75,86.86q-2,4.8-3.79,9.7A184.56,184.56,0,0,0,1355,734.7a188.59,188.59,0,0,0-3.19,34.66h23.77a162.2,162.2,0,0,1,22-81.75Z"/><path class="cls-1" d="M1336,715.54a208.32,208.32,0,0,1,27.8-61.7,210.89,210.89,0,0,1,58.81-58.94A208.48,208.48,0,0,1,1484.24,567h0a207.62,207.62,0,0,1,25.72-5.19,211.1,211.1,0,0,1,28.4-1.94V536.06a236,236,0,0,0-24.58,1.29,234.3,234.3,0,0,0,1.24-24.21h-23.78a209.92,209.92,0,0,1-1.87,28.09,228.38,228.38,0,0,0-24.17,6.58,187.75,187.75,0,0,0,3.2-34.67h-23.77a162.33,162.33,0,0,1-6.49,45.55A232.61,232.61,0,0,0,1406.42,577h0q2.34-4.57,4.36-9.33a139.35,139.35,0,0,0,11-54.53H1398a116.43,116.43,0,0,1-116.16,116.3v23.78a139.19,139.19,0,0,0,54.38-11q4.9-2.09,9.61-4.51h0a231,231,0,0,0-18.24,31.76,161.87,161.87,0,0,1-45.75,6.59v23.77a187.82,187.82,0,0,0,34.92-3.28,231.3,231.3,0,0,0-6.51,24.18h0a207.87,207.87,0,0,1-28.4,1.94v23.78a238.81,238.81,0,0,0,24.58-1.29,234.11,234.11,0,0,0-1.24,24.2H1329a209.54,209.54,0,0,1,7-53.82Z"/><path class="cls-1" d="M1724.53,513h-23.77a93.4,93.4,0,0,0,93.46,93.32V582.55A69.77,69.77,0,0,1,1724.53,513Z"/><path class="cls-1" d="M1771.15,513h-23.78a46.91,46.91,0,0,0,46.85,46.71V535.93A23.1,23.1,0,0,1,1771.15,513Z"/><path class="cls-1" d="M1677.92,513h-23.77a139.24,139.24,0,0,0,11,54.39q2.07,4.9,4.5,9.61a140.68,140.68,0,0,0,60.7,60.57c3.05,1.55,6.16,3,9.34,4.35a139.09,139.09,0,0,0,54.52,11V629.16A116.44,116.44,0,0,1,1677.92,513Z"/><path class="cls-1" d="M1604.09,703.56A93.21,93.21,0,0,0,1538,676.19V700a69.77,69.77,0,0,1,69.69,69.54h23.77a93.26,93.26,0,0,0-27.37-65.94Z"/><path class="cls-1" d="M1538,722.8v23.77a23.1,23.1,0,0,1,23.07,22.93h23.78A46.9,46.9,0,0,0,1538,722.8Z"/><path class="cls-1" d="M1712.47,653.73a164.1,164.1,0,0,1-59-58.81A162.06,162.06,0,0,1,1631.3,513h-23.77a187.93,187.93,0,0,0,3.28,34.93,184.64,184.64,0,0,0,7.75,28.3q1.7,4.69,3.64,9.3a186.91,186.91,0,0,0,99.35,99.34q4.8,2,9.7,3.79a184.56,184.56,0,0,0,28.31,7.69,187.64,187.64,0,0,0,34.66,3.2V675.77a161.93,161.93,0,0,1-81.75-22Z"/><path class="cls-1" d="M1740.4,715.38a208.32,208.32,0,0,1-61.7-27.8,211,211,0,0,1-58.94-58.8A208.28,208.28,0,0,1,1601,593.85a205.82,205.82,0,0,1-9.16-26.73h0a206,206,0,0,1-5.19-25.71,209.73,209.73,0,0,1-1.94-28.41h-23.77a233.31,233.31,0,0,0,1.29,24.58,237.28,237.28,0,0,0-24.21-1.23v23.77a210,210,0,0,1,28.09,1.88,228.21,228.21,0,0,0,6.58,24.16A187.75,187.75,0,0,0,1538,583v23.78a162.38,162.38,0,0,1,45.55,6.48,232,232,0,0,0,18.31,31.72h0q-4.58-2.34-9.33-4.35a139.18,139.18,0,0,0-54.53-11v23.78A116.43,116.43,0,0,1,1654.3,769.5h23.78a139.37,139.37,0,0,0-11-54.38q-2.08-4.9-4.51-9.61h0a230.92,230.92,0,0,0,31.76,18.23,162.64,162.64,0,0,1,6.59,45.75h23.77a187.82,187.82,0,0,0-3.28-34.92,225.83,225.83,0,0,0,24.18,6.51h0a209.58,209.58,0,0,1,1.94,28.4h23.78a238.62,238.62,0,0,0-1.29-24.57,236.94,236.94,0,0,0,24.2,1.23V722.39a209.54,209.54,0,0,1-53.82-7Z"/><path class="cls-1" d="M1913.22,741.35V769h-2.79A140.63,140.63,0,0,1,1913.22,741.35Z"/><path class="cls-1" d="M1859.8,579.23a93.16,93.16,0,0,0,27.38-66.09H1863.4a69.77,69.77,0,0,1-69.54,69.69V606.6a93.1,93.1,0,0,0,65.94-27.37Z"/><path class="cls-1" d="M1840.56,513.14h-23.77a23.09,23.09,0,0,1-22.93,23.07V560A46.9,46.9,0,0,0,1840.56,513.14Z"/><path class="cls-1" d="M1913.22,642.86v38.89c-1.24,1.92-2.44,3.88-3.59,5.86a162.2,162.2,0,0,0-22,81.75h-23.77V769A188.38,188.38,0,0,1,1867,734.7a184.75,184.75,0,0,1,7.69-28.3q1.75-4.89,3.79-9.71a188.41,188.41,0,0,1,12.27-24A186.23,186.23,0,0,1,1913.22,642.86Z"/><path class="cls-1" d="M1913.22,513.15v98.06a210.34,210.34,0,0,0-37.44,42.64A208.6,208.6,0,0,0,1841,769.36H1817.2V769a233.39,233.39,0,0,1,1.24-23.85,233.31,233.31,0,0,1-24.58,1.29V722.68a209.47,209.47,0,0,0,28.4-1.95h0a231.12,231.12,0,0,1,6.51-24.17,187.82,187.82,0,0,1-34.92,3.27V676.06a162.22,162.22,0,0,0,45.75-6.58,230.4,230.4,0,0,1,18.24-31.76h0c-3.13,1.61-6.34,3.12-9.61,4.5a139.19,139.19,0,0,1-54.38,11V629.45A116.44,116.44,0,0,0,1910,513.15Z"/><path class="cls-1" d="M1863.83,1025.5h23.78a93.37,93.37,0,0,0-93.46-93.31V956A69.76,69.76,0,0,1,1863.83,1025.5Z"/><path class="cls-1" d="M1817.22,1025.5H1841a46.9,46.9,0,0,0-46.84-46.7v23.77A23.11,23.11,0,0,1,1817.22,1025.5Z"/><path class="cls-1" d="M1913.22,1025.51h-2.77a116.44,116.44,0,0,0-116.3-116.16V885.57a139.16,139.16,0,0,1,54.52,11c3.17,1.34,6.29,2.8,9.34,4.35a140.87,140.87,0,0,1,55.21,50.9Z"/><path class="cls-1" d="M1913.22,881.85v32.73a163.91,163.91,0,0,0-37.32-29.8,161.93,161.93,0,0,0-81.75-22V839a187.72,187.72,0,0,1,34.66,3.2,185.18,185.18,0,0,1,28.31,7.69q4.89,1.74,9.7,3.79a185.84,185.84,0,0,1,46.4,28.21Z"/><path class="cls-1" d="M1894,814.76q9.87,4.66,19.19,10.21v28.37c-1.17-.82-2.36-1.62-3.55-2.41a208.64,208.64,0,0,0-115.52-34.81V792.35a237.23,237.23,0,0,1,24.2,1.23,235.84,235.84,0,0,1-1.29-24.57h23.77v.35a211.07,211.07,0,0,0,2,28h0a225.66,225.66,0,0,1,24.17,6.51,187.9,187.9,0,0,1-3.27-34.92h23.77v.35A162.1,162.1,0,0,0,1894,814.76Z"/><path class="cls-1" d="M1913.22,769.36v28.15a140.22,140.22,0,0,1-2.93-28.51h.14v.36Z"/><path class="cls-1" d="M1538,838.83V862.6a93.38,93.38,0,0,0,93.32-93.46h-23.77A69.77,69.77,0,0,1,1538,838.83Z"/><path class="cls-1" d="M1538,792.21V816a46.9,46.9,0,0,0,46.71-46.85h-23.77A23.1,23.1,0,0,1,1538,792.21Z"/><path class="cls-1" d="M1538,885.44v23.78a139.42,139.42,0,0,0,54.39-11c3.27-1.38,6.47-2.89,9.61-4.5A140.78,140.78,0,0,0,1662.57,833q2.34-4.57,4.35-9.33a139.16,139.16,0,0,0,11-54.52h-23.77A116.43,116.43,0,0,1,1538,885.44Z"/><path class="cls-1" d="M1728.56,959.27a93.26,93.26,0,0,0-27.37,66.09H1725a69.76,69.76,0,0,1,69.55-69.68V931.9a93.26,93.26,0,0,0-66,27.37Z"/><path class="cls-1" d="M1747.8,1025.36h23.78a23.1,23.1,0,0,1,22.93-23.07V978.52A46.89,46.89,0,0,0,1747.8,1025.36Z"/><path class="cls-1" d="M1678.73,850.89a163.94,163.94,0,0,1-58.81,59A162.06,162.06,0,0,1,1538,932.06v23.77a187,187,0,0,0,34.93-3.28,183.2,183.2,0,0,0,28.3-7.75q4.69-1.68,9.3-3.64a187,187,0,0,0,99.35-99.34c1.35-3.21,2.62-6.45,3.78-9.71a184.56,184.56,0,0,0,7.69-28.31,187.54,187.54,0,0,0,3.2-34.65h-23.77a162.06,162.06,0,0,1-22,81.74Z"/><path class="cls-1" d="M1740.39,823a208.32,208.32,0,0,1-27.8,61.7,211.33,211.33,0,0,1-58.81,59,208.62,208.62,0,0,1-34.93,18.78,206.15,206.15,0,0,1-26.72,9.15h0a209.68,209.68,0,0,1-54.13,7.12v23.78a235.74,235.74,0,0,0,24.58-1.3,237.43,237.43,0,0,0-1.23,24.21h23.77a210,210,0,0,1,1.88-28.09,229,229,0,0,0,24.17-6.57,187.65,187.65,0,0,0-3.21,34.66h23.78a162.38,162.38,0,0,1,6.48-45.55,229.36,229.36,0,0,0,31.72-18.31h0q-2.34,4.57-4.35,9.33a139.2,139.2,0,0,0-11,54.53h23.77a116.43,116.43,0,0,1,116.16-116.3V885.29a139.24,139.24,0,0,0-54.39,11c-3.27,1.38-6.47,2.89-9.61,4.5h0A230.4,230.4,0,0,0,1748.76,869a162.22,162.22,0,0,1,45.75-6.58V838.67a188.79,188.79,0,0,0-34.93,3.28,228.26,228.26,0,0,0,6.52-24.18h0a211.25,211.25,0,0,1,28.41-1.94V792.06a233.17,233.17,0,0,0-24.58,1.29,234.4,234.4,0,0,0,1.24-24.2h-23.78a209.88,209.88,0,0,1-1.88,28.08A206.18,206.18,0,0,1,1740.39,823Z"/><path class="cls-1" d="M1351.83,1025.5h23.78a93.37,93.37,0,0,0-93.46-93.31V956A69.76,69.76,0,0,1,1351.83,1025.5Z"/><path class="cls-1" d="M1305.22,1025.5H1329a46.9,46.9,0,0,0-46.84-46.7v23.77A23.11,23.11,0,0,1,1305.22,1025.5Z"/><path class="cls-1" d="M1398.45,1025.5h23.77a139.19,139.19,0,0,0-11-54.38c-1.38-3.28-2.89-6.48-4.5-9.61a140.82,140.82,0,0,0-60.7-60.57q-4.58-2.34-9.34-4.36a139.16,139.16,0,0,0-54.52-11v23.77A116.44,116.44,0,0,1,1398.45,1025.5Z"/><path class="cls-1" d="M1472.28,834.94a93.16,93.16,0,0,0,66.08,27.38V838.54A69.76,69.76,0,0,1,1468.68,769H1444.9a93.16,93.16,0,0,0,27.38,65.94Z"/><path class="cls-1" d="M1538.36,815.7V791.93A23.1,23.1,0,0,1,1515.29,769h-23.77A46.89,46.89,0,0,0,1538.36,815.7Z"/><path class="cls-1" d="M1363.9,884.77a164,164,0,0,1,58.94,58.82,161.8,161.8,0,0,1,22.22,81.91h23.77a187.82,187.82,0,0,0-3.27-34.92,184.8,184.8,0,0,0-7.76-28.31q-1.68-4.68-3.64-9.3a187.77,187.77,0,0,0-75.32-87.07,188.41,188.41,0,0,0-24-12.27q-4.82-2-9.7-3.79a186.33,186.33,0,0,0-28.31-7.69,188.59,188.59,0,0,0-34.66-3.19v23.77a162.2,162.2,0,0,1,81.75,22Z"/><path class="cls-1" d="M1336,823.12a208.49,208.49,0,0,1,61.71,27.8,211,211,0,0,1,58.94,58.81,208.62,208.62,0,0,1,18.78,34.93,206.15,206.15,0,0,1,9.15,26.72h0a206.14,206.14,0,0,1,5.18,25.72,209.47,209.47,0,0,1,2,28.4h23.77a238.81,238.81,0,0,0-1.29-24.58,234.26,234.26,0,0,0,24.2,1.24V978.39a209.88,209.88,0,0,1-28.08-1.88,228.38,228.38,0,0,0-6.58-24.17,187.72,187.72,0,0,0,34.66,3.2V931.77a162.39,162.39,0,0,1-45.55-6.49,231.51,231.51,0,0,0-18.3-31.72h0q4.56,2.34,9.33,4.36a139.12,139.12,0,0,0,54.52,11V885.16A116.44,116.44,0,0,1,1422.06,769h-23.77a139.19,139.19,0,0,0,11,54.38q2.07,4.9,4.51,9.61h0A230.51,230.51,0,0,0,1382,814.75a162.22,162.22,0,0,1-6.58-45.75h-23.77a187.82,187.82,0,0,0,3.27,34.92,230.46,230.46,0,0,0-24.17-6.51h0a209.61,209.61,0,0,1-2-28.41h-23.77a235.89,235.89,0,0,0,1.29,24.58,234.4,234.4,0,0,0-24.2-1.24v23.78a208.81,208.81,0,0,1,53.81,7Z"/><path class="cls-1" d="M1026,838.83V862.6a93.38,93.38,0,0,0,93.32-93.46h-23.77A69.77,69.77,0,0,1,1026,838.83Z"/><path class="cls-1" d="M1026,792.21V816a46.9,46.9,0,0,0,46.71-46.85h-23.77A23.1,23.1,0,0,1,1026,792.21Z"/><path class="cls-1" d="M1026,885.44v23.78a139.42,139.42,0,0,0,54.39-11c3.27-1.38,6.47-2.89,9.61-4.5A140.78,140.78,0,0,0,1150.57,833q2.34-4.57,4.35-9.33a139.16,139.16,0,0,0,11-54.52h-23.77A116.43,116.43,0,0,1,1026,885.44Z"/><path class="cls-1" d="M1216.56,959.27a93.26,93.26,0,0,0-27.37,66.09H1213a69.76,69.76,0,0,1,69.55-69.68V931.9a93.26,93.26,0,0,0-66,27.37Z"/><path class="cls-1" d="M1235.8,1025.36h23.78a23.1,23.1,0,0,1,22.93-23.07V978.52A46.89,46.89,0,0,0,1235.8,1025.36Z"/><path class="cls-1" d="M1166.73,850.89a163.94,163.94,0,0,1-58.81,59A162.06,162.06,0,0,1,1026,932.06v23.77a187,187,0,0,0,34.93-3.28,183.2,183.2,0,0,0,28.3-7.75q4.69-1.68,9.3-3.64a187,187,0,0,0,99.35-99.34c1.35-3.21,2.62-6.45,3.78-9.71a184.56,184.56,0,0,0,7.69-28.31,187.54,187.54,0,0,0,3.2-34.65h-23.77a162.06,162.06,0,0,1-22,81.74Z"/><path class="cls-1" d="M1228.39,823a208.32,208.32,0,0,1-27.8,61.7,211.33,211.33,0,0,1-58.81,59,208.62,208.62,0,0,1-34.93,18.78,206.15,206.15,0,0,1-26.72,9.15h0a209.68,209.68,0,0,1-54.13,7.12v23.78a235.74,235.74,0,0,0,24.58-1.3,237.43,237.43,0,0,0-1.23,24.21h23.77a210,210,0,0,1,1.88-28.09,229,229,0,0,0,24.17-6.57,187.65,187.65,0,0,0-3.21,34.66h23.78a162.38,162.38,0,0,1,6.48-45.55,229.36,229.36,0,0,0,31.72-18.31h0q-2.34,4.57-4.35,9.33a139.2,139.2,0,0,0-11,54.53h23.77a116.43,116.43,0,0,1,116.16-116.3V885.29a139.24,139.24,0,0,0-54.39,11c-3.27,1.38-6.47,2.89-9.61,4.5h0A230.4,230.4,0,0,0,1236.76,869a162.22,162.22,0,0,1,45.75-6.58V838.67a188.79,188.79,0,0,0-34.93,3.28,228.26,228.26,0,0,0,6.52-24.18h0a211.25,211.25,0,0,1,28.41-1.94V792.06a233.17,233.17,0,0,0-24.58,1.29,234.4,234.4,0,0,0,1.24-24.2h-23.78a209.88,209.88,0,0,1-1.88,28.08A206.18,206.18,0,0,1,1228.39,823Z"/><path class="cls-1" d="M838.83,1025.5h23.78a93.37,93.37,0,0,0-93.46-93.31V956A69.76,69.76,0,0,1,838.83,1025.5Z"/><path class="cls-1" d="M792.22,1025.5H816a46.9,46.9,0,0,0-46.84-46.7v23.77A23.11,23.11,0,0,1,792.22,1025.5Z"/><path class="cls-1" d="M885.45,1025.5h23.77a139.19,139.19,0,0,0-11-54.38c-1.38-3.28-2.89-6.48-4.5-9.61A140.82,140.82,0,0,0,833,900.94q-4.57-2.34-9.34-4.36a139.16,139.16,0,0,0-54.52-11v23.77A116.44,116.44,0,0,1,885.45,1025.5Z"/><path class="cls-1" d="M959.28,834.94a93.16,93.16,0,0,0,66.08,27.38V838.54A69.76,69.76,0,0,1,955.68,769H931.9a93.16,93.16,0,0,0,27.38,65.94Z"/><path class="cls-1" d="M1025.36,815.7V791.93A23.1,23.1,0,0,1,1002.29,769H978.52A46.89,46.89,0,0,0,1025.36,815.7Z"/><path class="cls-1" d="M850.9,884.77a164,164,0,0,1,58.94,58.82,161.8,161.8,0,0,1,22.22,81.91h23.77a187.82,187.82,0,0,0-3.27-34.92,184.8,184.8,0,0,0-7.76-28.31q-1.68-4.68-3.64-9.3a187.77,187.77,0,0,0-75.32-87.07,188.41,188.41,0,0,0-24-12.27q-4.82-2-9.7-3.79a186.33,186.33,0,0,0-28.31-7.69A188.59,188.59,0,0,0,769.15,839v23.77a162.2,162.2,0,0,1,81.75,22Z"/><path class="cls-1" d="M823,823.12a208.49,208.49,0,0,1,61.71,27.8,211,211,0,0,1,58.94,58.81,208.62,208.62,0,0,1,18.78,34.93,206.15,206.15,0,0,1,9.15,26.72h0a206.14,206.14,0,0,1,5.18,25.72,209.47,209.47,0,0,1,1.95,28.4h23.77a238.81,238.81,0,0,0-1.29-24.58,234.26,234.26,0,0,0,24.2,1.24V978.39a209.88,209.88,0,0,1-28.08-1.88,228.38,228.38,0,0,0-6.58-24.17,187.72,187.72,0,0,0,34.66,3.2V931.77a162.39,162.39,0,0,1-45.55-6.49,231.51,231.51,0,0,0-18.3-31.72h0q4.56,2.34,9.33,4.36a139.12,139.12,0,0,0,54.52,11V885.16A116.44,116.44,0,0,1,909.06,769H885.29a139.19,139.19,0,0,0,11,54.38q2.07,4.9,4.51,9.61h0A230.51,230.51,0,0,0,869,814.75,162.22,162.22,0,0,1,862.45,769H838.68A187.82,187.82,0,0,0,842,803.92a230.46,230.46,0,0,0-24.17-6.51h0A209.61,209.61,0,0,1,815.83,769H792.06a235.89,235.89,0,0,0,1.29,24.58,234.4,234.4,0,0,0-24.2-1.24v23.78a208.81,208.81,0,0,1,53.81,7Z"/><path class="cls-1" d="M513,838.83V862.6a93.38,93.38,0,0,0,93.32-93.46H582.55A69.77,69.77,0,0,1,513,838.83Z"/><path class="cls-1" d="M513,792.21V816a46.9,46.9,0,0,0,46.71-46.85H535.94A23.1,23.1,0,0,1,513,792.21Z"/><path class="cls-1" d="M513,885.44v23.78a139.42,139.42,0,0,0,54.39-11c3.27-1.38,6.47-2.89,9.61-4.5A140.78,140.78,0,0,0,637.57,833q2.34-4.57,4.35-9.33a139.16,139.16,0,0,0,11-54.52H629.17A116.43,116.43,0,0,1,513,885.44Z"/><path class="cls-1" d="M703.56,959.27a93.26,93.26,0,0,0-27.37,66.09H700a69.76,69.76,0,0,1,69.55-69.68V931.9a93.26,93.26,0,0,0-66,27.37Z"/><path class="cls-1" d="M722.8,1025.36h23.78a23.1,23.1,0,0,1,22.93-23.07V978.52A46.89,46.89,0,0,0,722.8,1025.36Z"/><path class="cls-1" d="M653.73,850.89a163.94,163.94,0,0,1-58.81,59A162.06,162.06,0,0,1,513,932.06v23.77a187,187,0,0,0,34.93-3.28,183.2,183.2,0,0,0,28.3-7.75q4.69-1.68,9.3-3.64a187,187,0,0,0,99.35-99.34c1.35-3.21,2.62-6.45,3.78-9.71a184.56,184.56,0,0,0,7.69-28.31,187.54,187.54,0,0,0,3.2-34.65H675.78a162.06,162.06,0,0,1-22,81.74Z"/><path class="cls-1" d="M715.39,823a208.32,208.32,0,0,1-27.8,61.7,211.33,211.33,0,0,1-58.81,59,208.62,208.62,0,0,1-34.93,18.78,206.15,206.15,0,0,1-26.72,9.15h0A209.68,209.68,0,0,1,513,978.67v23.78a235.74,235.74,0,0,0,24.58-1.3,237.43,237.43,0,0,0-1.23,24.21h23.77A210,210,0,0,1,562,997.27a229,229,0,0,0,24.17-6.57,187.65,187.65,0,0,0-3.21,34.66h23.78a162.38,162.38,0,0,1,6.48-45.55,229.36,229.36,0,0,0,31.72-18.31h0q-2.34,4.57-4.35,9.33a139.2,139.2,0,0,0-11,54.53h23.77a116.43,116.43,0,0,1,116.16-116.3V885.29a139.24,139.24,0,0,0-54.39,11c-3.27,1.38-6.47,2.89-9.61,4.5h0A230.4,230.4,0,0,0,723.76,869a162.22,162.22,0,0,1,45.75-6.58V838.67A188.79,188.79,0,0,0,734.58,842a228.26,228.26,0,0,0,6.52-24.18h0a211.25,211.25,0,0,1,28.41-1.94V792.06a233.17,233.17,0,0,0-24.58,1.29,234.4,234.4,0,0,0,1.24-24.2H722.39a209.88,209.88,0,0,1-1.88,28.08A206.18,206.18,0,0,1,715.39,823Z"/><path class="cls-1" d="M325.83,1025.5h23.78a93.37,93.37,0,0,0-93.46-93.31V956A69.76,69.76,0,0,1,325.83,1025.5Z"/><path class="cls-1" d="M279.22,1025.5H303a46.9,46.9,0,0,0-46.84-46.7v23.77A23.11,23.11,0,0,1,279.22,1025.5Z"/><path class="cls-1" d="M372.45,1025.5h23.77a139.19,139.19,0,0,0-11-54.38c-1.38-3.28-2.89-6.48-4.5-9.61A140.82,140.82,0,0,0,320,900.94q-4.58-2.34-9.34-4.36a139.16,139.16,0,0,0-54.52-11v23.77A116.44,116.44,0,0,1,372.45,1025.5Z"/><path class="cls-1" d="M446.28,834.94a93.16,93.16,0,0,0,66.08,27.38V838.54A69.76,69.76,0,0,1,442.68,769H418.9a93.16,93.16,0,0,0,27.38,65.94Z"/><path class="cls-1" d="M512.36,815.7V791.93A23.1,23.1,0,0,1,489.29,769H465.52A46.89,46.89,0,0,0,512.36,815.7Z"/><path class="cls-1" d="M337.9,884.77a164,164,0,0,1,58.94,58.82,161.8,161.8,0,0,1,22.22,81.91h23.77a187.82,187.82,0,0,0-3.27-34.92,184.8,184.8,0,0,0-7.76-28.31q-1.68-4.68-3.64-9.3a187.77,187.77,0,0,0-75.32-87.07,188.41,188.41,0,0,0-24-12.27q-4.81-2-9.7-3.79a186.33,186.33,0,0,0-28.31-7.69A188.59,188.59,0,0,0,256.15,839v23.77a162.2,162.2,0,0,1,81.75,22Z"/><path class="cls-1" d="M310,823.12a208.49,208.49,0,0,1,61.71,27.8,211,211,0,0,1,58.94,58.81,208.62,208.62,0,0,1,18.78,34.93,206.15,206.15,0,0,1,9.15,26.72h0a206.14,206.14,0,0,1,5.18,25.72,209.47,209.47,0,0,1,1.95,28.4h23.77a238.81,238.81,0,0,0-1.29-24.58,234.26,234.26,0,0,0,24.2,1.24V978.39a209.88,209.88,0,0,1-28.08-1.88,228.38,228.38,0,0,0-6.58-24.17,187.72,187.72,0,0,0,34.66,3.2V931.77a162.39,162.39,0,0,1-45.55-6.49,231.51,231.51,0,0,0-18.3-31.72h0q4.56,2.34,9.33,4.36a139.12,139.12,0,0,0,54.52,11V885.16A116.44,116.44,0,0,1,396.06,769H372.29a139.19,139.19,0,0,0,11,54.38q2.07,4.9,4.51,9.61h0A230.51,230.51,0,0,0,356,814.75,162.22,162.22,0,0,1,349.45,769H325.68A187.82,187.82,0,0,0,329,803.92a230.46,230.46,0,0,0-24.17-6.51h0A209.61,209.61,0,0,1,302.83,769H279.06a235.89,235.89,0,0,0,1.29,24.58,234.4,234.4,0,0,0-24.2-1.24v23.78a208.81,208.81,0,0,1,53.81,7Z"/><path class="cls-1" d="M0,838.83V862.6a93,93,0,0,0,36.24-7.34,93.21,93.21,0,0,0,29.71-20,93.14,93.14,0,0,0,20-29.7,92.84,92.84,0,0,0,7.35-36.39H69.55A69.77,69.77,0,0,1,0,838.83Z"/><path class="cls-1" d="M0,792.21V816a46.9,46.9,0,0,0,46.71-46.85H22.94A23.1,23.1,0,0,1,0,792.21Z"/><path class="cls-1" d="M0,885.44v23.78a139.42,139.42,0,0,0,54.39-11c3.27-1.38,6.47-2.89,9.61-4.5a139.91,139.91,0,0,0,34.91-25.52A139.67,139.67,0,0,0,124.57,833q2.34-4.57,4.35-9.33a139.16,139.16,0,0,0,11-54.52H116.17A116.43,116.43,0,0,1,0,885.44Z"/><path class="cls-1" d="M190.56,959.27a93.26,93.26,0,0,0-27.37,66.09H187a69.76,69.76,0,0,1,69.55-69.68V931.9a93.26,93.26,0,0,0-65.95,27.37Z"/><path class="cls-1" d="M209.8,1025.36h23.78a23.1,23.1,0,0,1,22.93-23.07V978.52A46.89,46.89,0,0,0,209.8,1025.36Z"/><path class="cls-1" d="M140.73,850.89a163.94,163.94,0,0,1-58.81,59,161.49,161.49,0,0,1-36.16,15.63A162,162,0,0,1,0,932.06v23.77a187,187,0,0,0,34.93-3.28,183.2,183.2,0,0,0,28.3-7.75q4.7-1.68,9.3-3.64A186.36,186.36,0,0,0,96.9,928.68a186.74,186.74,0,0,0,35-27.53,186.9,186.9,0,0,0,27.73-35.31,187.18,187.18,0,0,0,12.28-24c1.35-3.21,2.62-6.45,3.78-9.71a184.56,184.56,0,0,0,7.69-28.31,187.54,187.54,0,0,0,3.2-34.65H162.78a161.83,161.83,0,0,1-6.49,45.53A161.2,161.2,0,0,1,140.73,850.89Z"/><path class="cls-1" d="M202.39,823a207.75,207.75,0,0,1-9.1,26.74,209.25,209.25,0,0,1-18.7,35,211.33,211.33,0,0,1-58.81,59,208.62,208.62,0,0,1-34.93,18.78,206.15,206.15,0,0,1-26.72,9.15h0a206.14,206.14,0,0,1-25.72,5.18A208,208,0,0,1,0,978.67v23.78a235.74,235.74,0,0,0,24.58-1.3,237.43,237.43,0,0,0-1.23,24.21H47.12A210,210,0,0,1,49,997.27a229,229,0,0,0,24.17-6.57A187.65,187.65,0,0,0,70,1025.36H93.74a162.38,162.38,0,0,1,6.48-45.55,229.36,229.36,0,0,0,31.72-18.31h0q-2.34,4.57-4.35,9.33a139.2,139.2,0,0,0-11,54.53h23.77a116.43,116.43,0,0,1,116.16-116.3V885.29a139.24,139.24,0,0,0-54.39,11c-3.27,1.38-6.47,2.89-9.61,4.5h0A230.4,230.4,0,0,0,210.76,869a162.22,162.22,0,0,1,45.75-6.58V838.67A188.79,188.79,0,0,0,221.58,842a228.26,228.26,0,0,0,6.52-24.18h0a211.25,211.25,0,0,1,28.41-1.94V792.06a233.17,233.17,0,0,0-24.58,1.29,234.4,234.4,0,0,0,1.24-24.2H209.39a209.88,209.88,0,0,1-1.88,28.08A206.18,206.18,0,0,1,202.39,823Z"/><path class="cls-1" d="M211,1077.83H179.21A93,93,0,0,1,162.76,1025h23.77A69.54,69.54,0,0,0,211,1077.83Z"/><path class="cls-1" d="M233.15,1025H209.37a46.91,46.91,0,0,0,46.85,46.71v-23.78A23.1,23.1,0,0,1,233.15,1025Z"/><path class="cls-1" d="M152.7,1077.83H126.51A139.24,139.24,0,0,1,116.15,1025h23.77A115.54,115.54,0,0,0,152.7,1077.83Z"/><path class="cls-1" d="M102.14,1077.83h-25q-2.61-8.83-4.33-17.9A187.85,187.85,0,0,1,69.53,1025H93.31a162.34,162.34,0,0,0,6.58,45.76Q100.94,1074.33,102.14,1077.83Z"/><path class="cls-1" d="M48.63,1053.41a205.2,205.2,0,0,0,4.85,24.42H29c-.3-1.28-.59-2.55-.86-3.83a210.18,210.18,0,0,0-27.87-1.88H0v-23.77H.22a235.83,235.83,0,0,1,24,1.24A233.36,233.36,0,0,1,22.92,1025H46.69A209.62,209.62,0,0,0,48.63,1053.41Z"/><path class="cls-1" d="M349.18,1025.15a93.15,93.15,0,0,1-16.25,52.68H301.29a69.55,69.55,0,0,0,24.11-52.68Z"/><path class="cls-1" d="M302.56,1025.14H278.79a23.09,23.09,0,0,1-22.93,23.07V1072A46.9,46.9,0,0,0,302.56,1025.14Z"/><path class="cls-1" d="M372,1025.15h23.77a139.26,139.26,0,0,1-10.25,52.68H359.39A115.53,115.53,0,0,0,372,1025.15Z"/><path class="cls-1" d="M512.36,1048.06v23.77a209.47,209.47,0,0,0-28.4,2,204.59,204.59,0,0,0-21.29,4H398.38q6.75-3.8,13.76-7.13a162.39,162.39,0,0,0,6.49-45.55H442.4a187.64,187.64,0,0,1-3.2,34.66,228.38,228.38,0,0,1,24.17-6.58,209.77,209.77,0,0,0,1.87-28.08H489a234.26,234.26,0,0,1-1.24,24.2A238.81,238.81,0,0,1,512.36,1048.06Z"/><path class="cls-1" d="M724,1077.83H692.21A93,93,0,0,1,675.76,1025h23.77A69.54,69.54,0,0,0,724,1077.83Z"/><path class="cls-1" d="M746.15,1025H722.37a46.91,46.91,0,0,0,46.85,46.71v-23.78A23.1,23.1,0,0,1,746.15,1025Z"/><path class="cls-1" d="M665.7,1077.83H639.51A139.24,139.24,0,0,1,629.15,1025h23.77A115.54,115.54,0,0,0,665.7,1077.83Z"/><path class="cls-1" d="M615.14,1077.83h-25q-2.61-8.83-4.33-17.9a187.85,187.85,0,0,1-3.28-34.93h23.78a162.34,162.34,0,0,0,6.58,45.76Q613.94,1074.33,615.14,1077.83Z"/><path class="cls-1" d="M561.63,1053.41a205.2,205.2,0,0,0,4.85,24.42H542c-.3-1.28-.59-2.55-.86-3.83a210,210,0,0,0-28.09-1.88v-23.77a234.45,234.45,0,0,1,24.21,1.24,233.36,233.36,0,0,1-1.29-24.59h23.77A209.62,209.62,0,0,0,561.63,1053.41Z"/><path class="cls-1" d="M862.18,1025.15a93.15,93.15,0,0,1-16.25,52.68H814.29a69.55,69.55,0,0,0,24.11-52.68Z"/><path class="cls-1" d="M815.56,1025.14H791.79a23.09,23.09,0,0,1-22.93,23.07V1072A46.9,46.9,0,0,0,815.56,1025.14Z"/><path class="cls-1" d="M885,1025.15h23.77a139.26,139.26,0,0,1-10.25,52.68H872.39A115.53,115.53,0,0,0,885,1025.15Z"/><path class="cls-1" d="M1025.36,1048.06v23.77a209.47,209.47,0,0,0-28.4,2,204.59,204.59,0,0,0-21.29,4H911.38q6.75-3.8,13.76-7.13a162.39,162.39,0,0,0,6.49-45.55H955.4a187.64,187.64,0,0,1-3.2,34.66,228.38,228.38,0,0,1,24.17-6.58,209.77,209.77,0,0,0,1.87-28.08H1002a234.26,234.26,0,0,1-1.24,24.2A238.81,238.81,0,0,1,1025.36,1048.06Z"/><path class="cls-1" d="M1237,1077.83h-31.77a93,93,0,0,1-16.45-52.82h23.77A69.54,69.54,0,0,0,1237,1077.83Z"/><path class="cls-1" d="M1259.15,1025h-23.78a46.91,46.91,0,0,0,46.85,46.71v-23.78A23.1,23.1,0,0,1,1259.15,1025Z"/><path class="cls-1" d="M1178.7,1077.83h-26.19a139.24,139.24,0,0,1-10.36-52.83h23.77A115.54,115.54,0,0,0,1178.7,1077.83Z"/><path class="cls-1" d="M1128.14,1077.83h-25q-2.61-8.83-4.33-17.9a187.85,187.85,0,0,1-3.28-34.93h23.78a162.34,162.34,0,0,0,6.58,45.76Q1126.94,1074.33,1128.14,1077.83Z"/><path class="cls-1" d="M1074.63,1053.41a205.2,205.2,0,0,0,4.85,24.42H1055c-.3-1.28-.59-2.55-.86-3.83a210,210,0,0,0-28.09-1.88v-23.77a234.45,234.45,0,0,1,24.21,1.24,233.36,233.36,0,0,1-1.29-24.59h23.77A209.62,209.62,0,0,0,1074.63,1053.41Z"/><path class="cls-1" d="M1375.18,1025.15a93.15,93.15,0,0,1-16.25,52.68h-31.64a69.55,69.55,0,0,0,24.11-52.68Z"/><path class="cls-1" d="M1328.56,1025.14h-23.77a23.09,23.09,0,0,1-22.93,23.07V1072A46.9,46.9,0,0,0,1328.56,1025.14Z"/><path class="cls-1" d="M1398,1025.15h23.77a139.26,139.26,0,0,1-10.25,52.68h-26.15A115.53,115.53,0,0,0,1398,1025.15Z"/><path class="cls-1" d="M1538.36,1048.06v23.77a209.47,209.47,0,0,0-28.4,2,204.59,204.59,0,0,0-21.29,4h-64.29q6.75-3.8,13.76-7.13a162.39,162.39,0,0,0,6.49-45.55h23.77a187.64,187.64,0,0,1-3.2,34.66,228.38,228.38,0,0,1,24.17-6.58,209.77,209.77,0,0,0,1.87-28.08H1515a234.26,234.26,0,0,1-1.24,24.2A238.81,238.81,0,0,1,1538.36,1048.06Z"/><path class="cls-1" d="M1749,1077.83h-31.77a93,93,0,0,1-16.45-52.82h23.77A69.54,69.54,0,0,0,1749,1077.83Z"/><path class="cls-1" d="M1771.15,1025h-23.78a46.91,46.91,0,0,0,46.85,46.71v-23.78A23.1,23.1,0,0,1,1771.15,1025Z"/><path class="cls-1" d="M1690.7,1077.83h-26.19a139.24,139.24,0,0,1-10.36-52.83h23.77A115.54,115.54,0,0,0,1690.7,1077.83Z"/><path class="cls-1" d="M1640.14,1077.83h-25q-2.61-8.83-4.33-17.9a187.85,187.85,0,0,1-3.28-34.93h23.78a162.34,162.34,0,0,0,6.58,45.76Q1638.94,1074.33,1640.14,1077.83Z"/><path class="cls-1" d="M1586.63,1053.41a205.2,205.2,0,0,0,4.85,24.42H1567c-.3-1.28-.59-2.55-.86-3.83a210,210,0,0,0-28.09-1.88v-23.77a234.45,234.45,0,0,1,24.21,1.24,233.36,233.36,0,0,1-1.29-24.59h23.77A209.62,209.62,0,0,0,1586.63,1053.41Z"/><path class="cls-1" d="M1887.18,1025.15a93.15,93.15,0,0,1-16.25,52.68h-31.64a69.55,69.55,0,0,0,24.11-52.68Z"/><path class="cls-1" d="M1840.56,1025.14h-23.77a23.09,23.09,0,0,1-22.93,23.07V1072A46.9,46.9,0,0,0,1840.56,1025.14Z"/><path class="cls-1" d="M1913.22,1025.15v52.68h-15.83a115.53,115.53,0,0,0,12.63-52.68Z"/></g></g></svg>