<svg xmlns="http://www.w3.org/2000/svg" viewBox="0 0 1918.01 199.08"><g id="Layer_2" data-name="Layer 2"><g id="Layer_1-2" data-name="Layer 1"><polygon points="1916.55 7.13 1912.65 6.37 1910.28 7.06 1908.74 6.81 1906.44 8.12 1903.51 7.59 1903.03 7.82 1899.94 7.35 1898.31 8.1 1893.67 7.32 1891.55 7.98 1891.38 7.94 1888.15 9.05 1885.63 8.12 1885.35 8.22 1882.91 9.68 1877.75 8.31 1876.58 8.78 1874.39 8.31 1871.31 9.6 1869.6 9.08 1869 9.34 1864.51 8.16 1862.3 9.19 1859.32 8.61 1858.82 8.82 1854.57 8.18 1853.53 8.3 1851.25 8.79 1850.64 8.64 1848.95 8.89 1847.44 8.21 1842.82 9.95 1839.14 8.7 1838.87 8.78 1838.52 8.72 1836.58 9.07 1834.91 8.49 1833.56 8.33 1830.41 10.2 1826.53 9.29 1823.98 10.66 1819.39 9.25 1815.8 10.28 1812.22 8.58 1805.94 10.81 1800.45 8.12 1799.94 8.1 1795.92 9.25 1790.78 7.99 1788.5 8.28 1781.84 11.25 1775.16 8.12 1773.69 7.85 1770.71 7.96 1766.51 9.3 1764.71 8.7 1763.3 8.95 1758.38 10.82 1752.77 7.33 1751.7 7.11 1748.39 7.79 1746.93 7.2 1745.24 7.57 1743.97 7.07 1743.88 7.09 1742.76 6.71 1739.71 7.5 1737.71 6.58 1737.2 6.63 1736.05 5.91 1731.08 6.58 1728.28 4.33 1727.15 4.29 1726.84 4.33 1725.66 4.01 1722.92 4.02 1721.98 3.46 1718.98 3.47 1715.99 4.19 1714.75 3.62 1712.87 3.88 1711.58 2.93 1707.86 3.65 1703.86 0.59 1699.67 1.58 1698.22 0.92 1693.91 1.97 1693.68 2.44 1692.32 2.36 1691.26 2.62 1690.98 2.28 1687.42 2.06 1686.88 2.66 1678.5 3.07 1675.42 3.57 1674.58 3.55 1673.12 3.77 1671.11 3.63 1666.64 3.98 1665.24 3.67 1657.02 4.67 1655.3 3 1654.75 3.05 1652.53 1.68 1651.67 1.34 1644.64 2.38 1643.94 1.65 1642.83 1.79 1642.89 3.11 1637.03 3.51 1636.78 3.87 1635.97 4.08 1635.56 4.6 1632.21 5.34 1630.12 6.54 1629.52 6.6 1626.74 8.51 1619.39 7.77 1614.09 9.18 1610.17 7.64 1606.56 8.21 1604.31 7.13 1602.8 7.18 1601.73 6.67 1596.28 8.91 1593.86 7.83 1593.52 7.93 1590.72 6.75 1588.38 7.28 1585.04 5.99 1582.06 6.81 1579.62 6.34 1576.5 7.71 1573.94 7.18 1571.31 8.08 1570.81 7.93 1569 8.95 1563.28 7.5 1562.84 7.73 1561.21 7.66 1559.66 8.16 1558.06 7.89 1555.43 8.68 1551.62 7.84 1550.48 7.93 1547.42 8.57 1547.05 8.53 1546.28 8.89 1543.54 8.82 1543.06 8.93 1541.33 8.77 1539.54 9.71 1536.02 9.54 1535.52 9.63 1535.34 9.6 1534.11 9.83 1529.95 10.88 1529.34 10.67 1529.13 10.73 1528.69 10.97 1528.45 10.94 1526.76 11.46 1525.56 11.06 1520.53 14.38 1512.93 11.13 1506.77 13.36 1502.9 11.54 1499.91 12.58 1496.87 11.64 1493.61 12.28 1491.94 11.43 1490.16 10.9 1480.7 13.5 1475.9 8.27 1475.05 8.25 1473.23 7.52 1467.29 7.82 1465.99 6.17 1465.59 6.17 1464.01 4.58 1463.59 4.28 1460.8 4.22 1459.71 3.06 1456.99 2.58 1456.95 2.24 1456.29 2.13 1456.27 2.14 1455.09 1.99 1454.22 2.64 1452.66 2.68 1451.71 3.09 1448.07 2.85 1447.81 2.91 1447.13 3.3 1445.82 3.38 1445.5 3.46 1445.04 3.73 1444.07 4.5 1438.27 4.33 1436.39 5.08 1432.26 4.78 1431.94 4.81 1431.02 5.08 1427.09 8.67 1421.01 7.23 1419.62 7.63 1418.03 7.04 1414.1 9.35 1411.66 8.62 1410.51 9.2 1407.13 8.25 1406.72 8.55 1400.7 7.99 1399.52 8.33 1396.46 9.88 1392.02 8.8 1389.12 9.67 1387.76 9.26 1387.51 9.33 1383.88 8.43 1381.89 8.71 1381.69 8.69 1381 8.68 1378.06 9.6 1375.67 9.22 1374.38 9.39 1374.37 9.39 1373.82 9.53 1373.06 9.39 1371.07 9.88 1370.3 9.68 1366.68 11.3 1362.65 10.02 1362.18 10.24 1359.74 9.92 1354.54 11.07 1353.74 10.64 1351.46 11.45 1348.89 10.49 1348.33 10.73 1345.83 10.27 1343.74 10.64 1343.04 10.34 1342.69 10.45 1341.97 10.32 1340.14 10.71 1337.89 9.93 1336.56 10.15 1334.47 9.61 1334.17 9.64 1334.14 9.64 1333.4 9.71 1327.53 13.05 1322.55 10.99 1318.75 13.07 1311.91 10.14 1309.42 10.79 1309.02 10.67 1306.94 11.28 1302.35 9.51 1300.73 9.81 1298.55 9.57 1292.93 10.94 1292.29 10.69 1287.68 13.35 1280.93 10.22 1280.56 10.15 1278.81 10.79 1276.78 10.31 1276.43 10.38 1275.85 10.19 1274.79 10.63 1270.27 13.14 1263.41 9.99 1256.81 12.89 1251.03 9.9 1250.13 10.04 1249.27 9.85 1245.62 10.44 1245.21 10.32 1243.27 10.67 1242.61 10.44 1238.71 11.37 1238.07 11.12 1235.35 10.7 1233.06 11.54 1230.66 10.89 1225.08 13.23 1218.97 10.12 1212.07 11.07 1211.13 10.5 1207.04 11.54 1206.65 11.34 1204.83 11.82 1202.02 10.04 1201.85 10.08 1198.83 9.04 1195.68 9.08 1195.16 8.64 1185.86 10.07 1185.76 9.89 1184.23 10.16 1182.18 6.3 1180.81 6.45 1178.24 4.92 1176 5.08 1174.31 4.02 1166.14 4.37 1165.95 3.38 1163.68 3.5 1162.52 0 1127.62 0.17 1126.31 1.1 1122.71 0.2 1112.97 0.25 1111.35 0.81 1111.04 0.74 1107.12 4.5 1101.3 2.62 1098.68 4.45 1092.88 2.57 1090.1 3.5 1089.56 3.31 1088.64 3.83 1085 3.19 1084.5 3.31 1084.1 3.2 1080.08 5.95 1072.26 3.5 1071.87 3.6 1071.62 3.58 1069.48 4.51 1066.17 4.04 1063.79 4.67 1062.82 4.45 1061.77 4.79 1059.38 4.34 1053.19 6.11 1049.3 4.37 1042.16 6.34 1039.08 5.06 1036.52 4.89 1035.29 5.37 1033.38 5.19 1033.25 5.21 1032.5 5.1 1031.26 4.98 1030.33 5.05 1029.78 4.84 1029.2 4.91 1027.57 5.32 1021.5 7.97 1020.02 7.31 1019.75 7.44 1013.43 5.32 1005.75 9.23 999.4 5.77 997.61 6.09 995.53 5.38 994.88 5.46 993.25 6.15 990.79 7.36 990.53 7.29 988.93 7.96 986.04 6.75 985.84 6.83 980.33 5.26 979.69 5.27 971.36 7.76 967.23 5.54 964.64 5.78 963.08 5.13 955.76 7.44 951.13 4.8 946.55 5.55 946.19 5.64 946.13 5.62 945.6 5.71 944.2 4.81 940.44 5.49 939.79 5.06 939.53 5.11 938.03 4.36 936.15 4.83 932.21 3.04 928.38 3.65 927.25 3.09 926.99 3.17 923.66 2.13 922.62 1.93 919.37 1.96 919.08 1.74 918.03 1.8 917.58 1.64 915.69 1.76 914.95 1.5 906.05 3.03 904.65 1.29 871.09 1.45 869.18 3.04 866.5 2.89 863.34 5.86 854.41 4.13 853.48 4.37 851.58 4.25 849.86 4.64 845.5 4.09 843.54 4.14 841.82 4.62 836.68 7.08 836.51 7.01 835.87 7.42 835.47 7.27 835.25 7.38 833.31 6.45 828.38 4.58 827.74 4.52 827.36 4.57 826.64 4.42 826.1 4.38 825.41 4.36 821.51 5.53 818.87 6.89 818.24 6.74 818.22 6.75 813.5 5.74 808.9 8.42 806.16 7.61 805.74 7.79 803.53 7.25 803.44 7.29 801.67 6.9 799.22 7.52 796.11 6.6 794.75 6.58 793.15 7.08 791.62 6.91 789.65 7.67 787.65 7.35 786.39 7.59 784.81 7.08 780.55 8.18 779.21 7.66 777.26 8.07 776.04 7.47 774.23 7.87 772.08 6.76 769.32 7.18 768.13 6.38 764.2 6.85 762.34 4.9 759.15 5.25 757.61 3.9 755.5 4.11 755.3 3.94 753 4.07 751.86 2.05 725.07 2.18 723.52 4.9 714.92 4.89 710.05 7.44 707.93 7.11 706.59 7.66 702.56 6.93 701.08 7.56 700.38 7.49 698.1 8.21 695.08 7.42 693.21 7.93 692.49 7.86 692.34 7.89 688.6 10.13 683.25 9 681.22 9.7 677.49 13.4 671.57 11.71 668.99 14.25 663.25 12.68 659.47 15.34 654.54 13.43 654.16 13.62 651.84 13.13 649.45 14.37 646.17 13.54 644.01 14.39 642.15 13.88 639.24 15.66 631.19 13.33 630.78 13.35 630.62 13.28 625.93 15.63 625.19 15.43 621.51 17.23 615.75 14.47 611.93 14.02 609.92 14.62 608.59 14.41 607.25 14.57 605.44 13.91 603.98 13.69 603.68 13.76 601.1 14.65 600.61 14.56 596.32 15.68 595.03 15.02 593.49 15.48 589 13.49 588.44 13.34 585.12 14.28 580.01 12.47 578.36 12.53 577.5 12.21 577.1 12.23 575.48 11.71 566.91 12.93 564.7 10.47 561.9 8.91 558.29 8.81 556.45 7.83 555.68 7.79 553.71 7 550.17 7.13 548.24 5.87 546.15 5.7 545.84 5.71 545.77 5.67 544.45 5.55 543.77 4.52 543.4 4.31 538.51 4.29 538.14 3.92 535.46 4.25 534.68 3.63 531.67 4.26 530.29 3.15 495.73 3.33 494.7 4.82 492.12 4.43 491.92 4.63 488.93 4.22 488.92 4.24 485.97 4.11 484.06 6.75 481.85 6.41 481.17 6.36 480.63 7.16 472.08 6.23 471.42 6.55 469.98 6.71 467.36 8.51 464.67 8.4 463.92 8.44 463.74 8.52 463.16 8.5 460.97 11.14 456.93 10.66 456.42 10.93 455.71 10.79 454.67 11.53 449.83 10.75 447.22 12.17 441.35 10.97 440.86 11.06 439.78 10.91 435.38 12.15 432.19 11.14 429.99 10.72 427.69 10.86 418.85 14.08 414.95 10.8 413.95 11.27 411.48 10.59 408.81 11.47 407.82 11.06 405.63 12.19 400.69 10.43 400.51 10.49 399.45 10.34 396.3 11.66 392.77 10.73 388.7 12.26 385.52 11.21 382.63 12 380.21 11.23 375.11 12.45 374.39 12.17 371.4 13.53 370.46 13.25 368.11 14.49 367.63 14.31 366.8 14.67 363.71 13.19 362.71 13.5 358.69 11.95 358.41 11.98 357.23 11.64 355.31 11.73 353.04 12.22 352.13 12.69 348.28 12.3 343.63 14.16 340.11 12.92 337.59 14.05 332.91 12.71 332.61 12.67 331.2 12.91 328.84 12.17 328.69 12.15 321.83 12.74 321.48 12.57 319.79 12.95 318.38 12.68 315.27 13.37 312.48 12.48 312.1 12.55 306.37 15.52 303.96 14.53 303.69 14.64 303.66 14.63 303.2 14.83 301.02 14.05 297.91 15.3 292.68 12.76 292.25 12.88 289.47 12.47 286.03 12.28 285.6 12.37 278.74 15.5 273.56 13.11 271.14 12.85 266.92 14.05 263.52 12.68 261.56 13.15 259.77 12.72 254.04 14.3 253.36 13.98 250.78 15.08 246.23 13.11 244.78 13.49 241.75 12.55 235.73 15.43 232.36 13.9 231.8 14.02 229.37 12.64 228.66 12.54 225.25 13.36 223.2 12.7 223.17 12.71 220.91 12.37 218.91 12.76 218.26 12.61 217.22 12.81 210.6 15.62 207.92 14.13 205 12.7 202.99 12.47 197.78 14.24 196.36 13.68 195.25 14 194.35 13.61 193.36 13.88 191.71 13.19 190.97 13.36 190.44 13.18 189.77 13.34 188.49 12.9 187 13.26 184.91 12.65 181.44 13.88 177.69 12.73 175.42 13.27 175.38 13.26 173.71 13.91 167.97 12.19 167.08 12.47 165.89 12.36 163.18 12.79 160.64 12.07 153.43 12.04 150.98 12.82 148.7 12.25 146.58 12.86 140.59 10.74 134.92 11.04 133.23 9.94 128.66 10.9 128.18 10.63 122.09 12.05 119.61 8.61 118.09 7.96 114.27 8.25 113.73 8.48 108.49 7.11 104.26 10.26 99.38 8.81 98.35 9.41 95.26 8.88 93.14 10.47 88 9.8 86.86 10.33 85.92 10.31 85.92 10.32 82.56 10.76 80.6 11.19 78.11 14.59 76.08 14.44 76.01 14.58 72.39 14.65 70.73 16.86 68.98 16.73 68.31 17.54 61.58 17 60.7 17.04 59.07 17.72 58.05 17.7 54.63 19.14 54.37 19.12 52.54 20.22 47.57 19.48 46.46 19.78 44.39 19.46 42.33 19.84 40.1 19.31 39.81 19.35 31.52 22.59 29.06 21.09 25.96 22.46 20.36 19.51 17.67 20.07 17.16 19.87 14.18 20.85 8.53 18.35 3.81 18.65 1.83 17.63 1.6 17.57 0.73 17.52 0.3 17.54 0 17.5 0 199.08 1918.01 199.08 1918.01 6.62 1916.55 7.13" fill="#EBEBEB"/></g></g></svg>