<svg xmlns="http://www.w3.org/2000/svg" width="1923" height="179.694" viewBox="0 0 1923 179.694">
  <path id="paper-effect-bottom" d="M1923.537,652.349l-3.913-.678-2.373.619-1.544-.226-2.3,1.183-2.943-.482-.479.208-3.1-.419-1.633.678-4.66-.711-2.122.6-.166-.03-3.247,1-2.52-.846-.285.095-2.447,1.314-5.175-1.23-1.17.417-2.193-.42-3.092,1.164-1.714-.464-.6.227-4.5-1.057-2.223.92-2.985-.517-.5.185-4.256-.571-1.04.106-2.289.438-.609-.134-1.7.228-1.511-.615-4.634,1.567-3.689-1.12-.267.066-.356-.05-1.943.317-1.676-.528-1.348-.139-3.157,1.688-3.9-.828-2.551,1.238-4.6-1.271-3.606.927-3.591-1.533-6.3,2.01-5.5-2.425-.517-.023-4.028,1.039-5.158-1.133-2.284.258-6.679,2.682-6.7-2.829L1780.3,653l-2.993.1-4.209,1.208-1.8-.539-1.415.22-4.937,1.692-5.621-3.148-1.072-.2-3.316.613-1.472-.532-1.688.335-1.274-.451-.095.017-1.12-.34-3.053.707-2.006-.827-.511.045-1.157-.649-4.989.605-2.8-2.036-1.133-.038-.31.041-1.186-.291-2.749.01-.939-.5-3.013.007-2.994.65-1.243-.52-1.889.234-1.286-.856-3.734.657-4.008-2.763-4.2.895-1.458-.6-4.313.948-.231.427-1.371-.075-1.064.234-.281-.307-3.563-.194-.549.543-8.4.364-3.091.458-.846-.019-1.461.2-2.011-.13-4.481.318-1.4-.282-8.241.9-1.732-1.506-.546.043-2.225-1.236-.867-.3-7.041.94-.707-.662-1.109.123.058,1.194-5.883.364-.246.318-.812.19-.41.473-3.358.67-2.094,1.086-.606.047-2.782,1.724-7.374-.662-5.31,1.274-3.929-1.395-3.628.513-2.249-.975-1.519.045-1.067-.459-5.466,2.025-2.431-.973-.337.086-2.805-1.067-2.348.484-3.354-1.167-2.988.741-2.444-.426-3.127,1.235-2.564-.474-2.637.808-.505-.135-1.808.924-5.735-1.307-.45.2-1.633-.064-1.555.448-1.6-.235-2.634.706-3.82-.757-1.144.085-3.072.574-.373-.031-.766.321-2.744-.064-.49.1-1.732-.15-1.794.851-3.528-.157-.5.081-.179-.028-1.229.215-4.177.941-.614-.187-.206.057-.442.213-.24-.024-1.7.471-1.2-.365-5.051,3-7.618-2.932-6.176,2-3.877-1.641-2.994.945-3.049-.853-3.276.581-1.669-.768-1.781-.482-9.491,2.352-4.806-4.724-.861-.013-1.816-.666-5.957.278-1.3-1.493-.411,0-1.579-1.435-.418-.266-2.8-.057-1.093-1.044-2.728-.436-.04-.306-.663-.1-.025.006-1.183-.137-.868.592-1.566.037-.951.364-3.653-.214-.255.054-.69.349-1.312.077-.313.067-.467.248-.973.691-5.809-.148-1.887.678-4.141-.278-.324.033-.921.244-3.94,3.241-6.093-1.3-1.4.366-1.6-.536-3.941,2.085-2.436-.658-1.158.523-3.39-.856-.414.271-6.035-.506-1.181.3-3.065,1.4-4.458-.969-2.905.784-1.361-.37-.247.057-3.643-.807-2,.251-.2-.015-.7-.01-2.947.824-2.391-.341-1.3.159-.014,0-.551.124-.76-.12-1.994.434-.769-.179-3.632,1.469-4.036-1.16-.469.2-2.448-.284-5.218,1.035-.8-.383-2.285.731-2.574-.871-.569.222-2.5-.424-2.1.34-.7-.275-.348.1-.722-.12-1.83.356-2.258-.707-1.332.2-2.1-.488-.3.03h-.036l-.737.064-5.889,3.009-5-1.853-3.8,1.879-6.862-2.648-2.5.584-.4-.109-2.085.548-4.6-1.592-1.623.273-2.185-.22-5.636,1.233-.64-.227-4.625,2.406-6.761-2.829-.37-.063-1.763.582-2.028-.433-.356.06-.578-.166-1.069.394-4.527,2.27-6.877-2.843-6.62,2.616-5.792-2.7-.906.128-.862-.172-3.655.525-.411-.1-1.945.314-.66-.2-3.908.841-.643-.231-2.734-.374-2.3.752-2.4-.581-5.6,2.114-6.12-2.808-6.924.85-.939-.511-4.105.94-.383-.181-1.832.432-2.811-1.6-.177.035-3.019-.942-3.161.034-.518-.39-9.326,1.289-.1-.163-1.53.242-2.063-3.48-1.373.13-2.572-1.382-2.248.145-1.693-.954-8.192.311-.194-.892-2.276.112-1.157-3.161-35,.157-1.315.837-3.6-.815-9.767.044-1.629.506-.311-.057L1112,649.978l-5.836-1.692-2.626,1.646-5.818-1.693-2.785.834-.55-.165-.918.47-3.648-.579-.5.11-.4-.1-4.033,2.477-7.842-2.209-.393.087-.243-.019-2.153.846-3.31-.422-2.388.563-.971-.2-1.061.308-2.395-.409-6.2,1.6-3.909-1.567-7.151,1.776-3.093-1.159-2.57-.149-1.228.431-1.91-.164-.138.025-.75-.1-1.239-.106-.934.057-.548-.184-.589.056-1.636.377-6.083,2.393-1.476-.6-.279.114-6.329-1.916-7.7,3.531L1004,651.122l-1.795.289-2.089-.642-.654.08-1.635.619-2.466,1.093-.255-.063-1.6.606-2.9-1.093-.209.067-5.525-1.41-.637.007-8.352,2.246-4.139-2-2.6.209-1.559-.584-7.344,2.089-4.634-2.383-4.6.675-.355.083-.059-.022-.536.079-1.4-.809-3.771.611-.646-.386-.264.049-1.5-.679-1.888.423-3.952-1.618-3.843.553-1.128-.5-.268.065-3.334-.929-1.039-.181-3.26.023-.293-.2-1.051.054-.458-.145-1.889.108-.74-.24-8.921,1.383L909,647.078l-33.643.151-1.919,1.435-2.684-.137-3.17,2.68-8.956-1.566-.926.219-1.91-.1-1.721.345-4.378-.491-1.957.041-1.734.433-5.152,2.222-.163-.066-.647.371-.395-.135-.221.1-1.947-.839-4.943-1.69-.645-.051-.38.047-.719-.135-.539-.043-.7-.011-3.9,1.057L823,652.138l-.631-.139-.025.011-4.735-.915L813,653.521l-2.745-.739-.427.17-2.209-.488-.1.029-1.774-.35-2.457.558-3.116-.825-1.362-.016-1.6.449-1.537-.152-1.982.684-2-.292-1.266.215-1.587-.461-4.268,1-1.35-.477-1.953.37-1.215-.539-1.823.362-2.15-1-2.773.379-1.188-.724-3.941.424-1.871-1.758-3.194.313-1.542-1.212-2.122.188-.194-.152-2.311.117-1.135-1.829-26.861.121-1.554,2.455-8.621-.008-4.891,2.3-2.12-.3-1.349.5-4.035-.661-1.483.571-.705-.066-2.281.653-3.027-.711-1.878.459-.724-.065-.152.028-3.75,2.021-5.362-1.015-2.03.63-3.747,3.34-5.927-1.525-2.589,2.293-5.757-1.418-3.789,2.4-4.943-1.725-.383.174-2.328-.437-2.4,1.119-3.282-.755-2.169.774-1.863-.464-2.92,1.606-8.073-2.107-.4.021-.165-.059-4.706,2.114-.741-.174-3.69,1.626-5.776-2.5-3.824-.406-2.019.541-1.331-.189-1.347.148-1.816-.6-1.461-.205-.3.07-2.593.8-.483-.082-4.3,1.008-1.293-.591-1.547.41-4.5-1.8-.563-.135-3.337.846-5.12-1.63-1.656.052-.859-.29-.4.018-1.626-.464-8.589,1.1-2.223-2.218-2.806-1.406-3.618-.089-1.846-.885-.773-.036-1.976-.713-3.544.117-1.938-1.139-2.1-.158-.306.01-.075-.038-1.324-.1-.684-.93-.37-.19-4.9-.02-.369-.335-2.69.3-.773-.554-3.018.562-1.385-1-34.658.156-1.026,1.35-2.593-.348-.2.178-2.992-.372-.019.018-2.954-.115-1.917,2.38-2.214-.3-.677-.047-.544.72-8.568-.84-.663.288-1.443.145-2.635,1.621-2.693-.094-.755.038-.178.066-.582-.017-2.191,2.39-4.055-.436-.509.239-.713-.121-1.044.665-4.849-.7-2.62,1.28-5.885-1.081-.493.085-1.077-.143-4.411,1.121-3.2-.911-2.211-.378-2.308.124-8.856,2.912-3.91-2.965-1.006.423-2.476-.617-2.679.8-.99-.372-2.19,1.02-4.958-1.585-.183.055-1.057-.145-3.157,1.2-3.546-.839-4.074,1.375-3.19-.945-2.894.715-2.43-.694-5.112,1.1-.724-.253-3,1.231-.945-.253L371.068,659l-.484-.165-.834.328-3.095-1.337-1,.282-4.036-1.4-.276.028-1.191-.307-1.925.081-2.275.444-.907.424-3.865-.35-4.654,1.678-3.539-1.116-2.523,1.017-4.691-1.213-.305-.036-1.408.22-2.367-.667-.15-.018-6.875.53-.359-.148-1.689.336-1.413-.239-3.12.625-2.8-.809-.379.063-5.745,2.685-2.417-.893-.27.1-.035-.012-.456.183L303.8,658.6l-3.118,1.128-5.24-2.29-.436.107-2.781-.368L288.774,657l-.435.087-6.879,2.82-5.2-2.153-2.426-.236-4.227,1.08L266.2,657.36l-1.974.431-1.794-.393-5.741,1.425-.679-.287-2.59.995-4.566-1.779-1.451.346-3.04-.853-6.032,2.6-3.378-1.38-.562.109-2.434-1.24-.714-.1-3.42.738-2.057-.59-.032.008-2.26-.312-2.005.355-.656-.132-1.043.18-6.636,2.538-2.684-1.343-2.929-1.3-2.013-.205-5.226,1.6-1.422-.5-1.117.287-.9-.349-.995.241-1.654-.625-.736.154-.532-.161-.672.143-1.283-.393-1.5.323-2.1-.552-3.478,1.115-3.758-1.039-2.273.487-.045-.012-1.669.584-5.76-1.548-.9.251-1.186-.1-2.716.393-2.553-.649-7.231-.032-2.45.711-2.285-.518-2.131.554-6-1.921-5.692.278-1.688-1-4.584.872-.479-.244L124.4,656.8l-2.48-3.109-1.525-.585-3.833.263-.541.208-5.251-1.238-4.241,2.837-4.9-1.308-1.029.543-3.1-.476-2.131,1.435-5.15-.607-1.146.482-.934-.015-.006,0-3.371.4-1.958.389-2.5,3.069-2.029-.132-.075.125-3.63.065-1.658,1.994-1.762-.118-.665.734-6.752-.5-.882.04-1.636.613-1.019-.018L56.772,663.2l-.264-.026-1.834,1-4.985-.665-1.11.265-2.075-.282-2.068.336-2.238-.476-.285.032L33.6,666.3l-2.47-1.348-3.11,1.237-5.606-2.662-2.7.5-.506-.177-3,.884-5.66-2.253-4.728.267-1.99-.921-.231-.054-.875-.049-.432.025-.3-.039v163.9h1923V651.893Z" transform="translate(1924.995 825.612) rotate(180)"/>
</svg>
