<svg xmlns="http://www.w3.org/2000/svg" xmlns:xlink="http://www.w3.org/1999/xlink" width="430.949" height="605.837" viewBox="0 0 430.949 605.837">
  <defs>
    <clipPath id="clip-path">
      <rect id="Rectangle_354" data-name="Rectangle 354" width="430.949" height="605.837" transform="translate(430.949 605.837) rotate(180)" fill="#eeeceb"/>
    </clipPath>
  </defs>
  <g id="newsletter-right-paper-effect" transform="translate(0)" clip-path="url(#clip-path)">
    <path id="Path_3700" data-name="Path 3700" d="M3520.3,11.574l-7.17-1.219-4.347,1.114-2.829-.406-4.219,2.128-5.393-.867-.877.374-5.673-.754-2.991,1.22-8.536-1.28-3.888,1.073-.3-.054-5.948,1.8-4.616-1.522-.523.17-4.483,2.365-9.48-2.214-2.143.751-4.016-.756-5.665,2.095-3.14-.836-1.1.409-8.246-1.9-4.073,1.656-5.47-.931-.919.334-7.8-1.028-1.9.19-4.192.789-1.115-.24-3.119.41-2.768-1.108-8.49,2.82-6.758-2.016-.489.118-.651-.091-3.559.571-3.07-.951-2.47-.25-5.783,3.039-7.142-1.489-4.674,2.228-8.426-2.287-6.605,1.669-6.578-2.759-11.532,3.618-10.077-4.364-.948-.042-7.379,1.87-9.451-2.039-4.184.465-12.237,4.828-12.267-5.092-2.693-.429-5.483.178-7.712,2.174-3.3-.97-2.592.4-9.045,3.046-10.3-5.665-1.963-.362-6.076,1.1-2.7-.957-3.093.6-2.334-.812-.173.03-2.053-.612-5.594,1.272-3.676-1.488-.936.081-2.119-1.167-9.139,1.089-5.132-3.665-2.075-.068-.569.074-2.172-.523-5.035.017-1.72-.9-5.52.013-5.485,1.171-2.278-.936-3.461.421-2.357-1.54-6.841,1.182L3129.629.964l-7.7,1.61-2.67-1.085-7.9,1.707-.423.769-2.512-.135-1.949.421-.514-.553-6.529-.35-1,.978-15.381.655-5.663.824-1.55-.033-2.676.36-3.684-.234-8.209.572-2.572-.507-15.1,1.618-3.173-2.711-1,.078-4.076-2.224-1.587-.544-12.9,1.692-1.295-1.192-2.032.222.107,2.148-10.777.655-.45.572-1.488.342-.751.85-6.152,1.207-3.836,1.954-1.111.085-5.1,3.1-13.51-1.191-9.728,2.292-7.2-2.51-6.647.924-4.121-1.755-2.782.08-1.956-.827-10.013,3.645-4.454-1.751-.617.155-5.139-1.92-4.3.871-6.145-2.1-5.474,1.334-4.477-.767-5.728,2.222-4.7-.853-4.831,1.454-.926-.242-3.312,1.662L2871.42,12.19l-.825.368-2.992-.115-2.848.805-2.934-.423L2857,14.1l-7-1.363-2.1.153-5.628,1.033-.683-.056-1.4.578-5.027-.114-.9.185-3.172-.269-3.287,1.531-6.463-.282-.924.146-.327-.05-2.251.386-7.652,1.694-1.124-.337-.378.1-.81.384-.44-.043-3.109.848-2.19-.656-9.253,5.4-13.957-5.276L2767.612,21.7l-7.1-2.954-5.486,1.7-5.587-1.535-6,1.045-3.057-1.382-3.263-.868-17.387,4.232-8.8-8.5-1.577-.023-3.326-1.2-10.913.5-2.385-2.687-.754,0-2.893-2.582-.765-.479-5.123-.1-2-1.879-5-.785-.074-.551-1.215-.177-.046.011-2.167-.246-1.591,1.066-2.869.067-1.743.655-6.693-.385-.467.1-1.263.628-2.4.139-.573.12-.856.446-1.782,1.244L2641.8,7.039l-3.456,1.22-7.586-.5-.594.059-1.687.44-7.219,5.833L2610.1,11.745l-2.563.659-2.925-.965-7.22,3.753-4.463-1.184-2.121.941-6.21-1.541-.758.487-11.056-.91-2.164.546L2565,16.048l-8.168-1.745-5.323,1.412-2.494-.667-.453.1-6.674-1.453-3.659.452-.358-.027L2536.6,14.1l-5.4,1.483-4.381-.613-2.382.286-.025-.006-1.009.224-1.392-.217-3.653.78-1.408-.323-6.654,2.643-7.4-2.087-.859.352-4.484-.511L2488,17.979l-1.468-.689-4.185,1.316-4.716-1.567-1.043.4-4.579-.763-3.847.612-1.291-.494-.637.181-1.323-.215-3.353.64-4.136-1.273-2.44.366-3.847-.878-.543.054-.067,0-1.351.114-10.789,5.415-9.153-3.335-6.965,3.381L2409.7,16.475l-4.579,1.051-.732-.2-3.82.987-8.43-2.865-2.974.492-4-.4-10.326,2.22-1.173-.409-8.472,4.33L2352.8,16.6l-.678-.114-3.23,1.048-3.716-.779-.651.107-1.059-.3-1.959.709-8.294,4.085-12.6-5.117-12.128,4.707-10.612-4.858-1.66.231-1.579-.309-6.7.944-.754-.188-3.563.566-1.208-.366-7.159,1.514-1.179-.415-5.009-.673-4.206,1.353L2260.47,17.7,2250.2,21.5l-11.213-5.054-12.685,1.53-1.719-.92-7.521,1.691-.7-.326-3.356.777-5.15-2.884-.324.063L2202,14.683l-5.79.061-.95-.7-17.085,2.319-.187-.293-2.8.436-3.78-6.263-2.515.234-4.713-2.487-4.118.261-3.1-1.718-15.007.56-.355-1.605-4.17.2L2135.31,0l-64.116.283-2.41,1.506-6.6-1.466L2044.3.4l-2.984.91-.57-.1-7.189,6.1-10.692-3.046-4.81,2.962-10.659-3.047-5.1,1.5-1.007-.3-1.682.846-6.682-1.042-.914.2-.74-.178-7.389,4.458-14.366-3.976-.72.156-.446-.034L1964.4,7.33l-6.063-.759-4.375,1.014-1.779-.353-1.944.554-4.387-.736-11.356,2.871-7.162-2.82-13.1,3.2-5.666-2.085-4.708-.268-2.25.776-3.5-.3-.254.045-1.374-.182-2.269-.191-1.712.1-1-.332-1.08.1-3,.678-11.144,4.308-2.7-1.074-.511.206-11.595-3.448-14.109,6.355L1835.69,9.367l-3.288.52-3.827-1.155-1.2.144-3,1.114-4.517,1.967-.468-.113-2.934,1.09-5.308-1.967-.383.12-10.123-2.538-1.167.012-15.3,4.042-7.583-3.6-4.765.375-2.857-1.051-13.454,3.76L1747.033,7.8l-8.43,1.215-.65.149-.108-.04-.982.141-2.571-1.455-6.909,1.1-1.183-.694-.484.088-2.746-1.222-3.458.761-7.24-2.912-7.041,1-2.066-.906-.49.118-6.108-1.672-1.9-.326-5.973.042-.536-.351-1.925.1-.838-.262-3.461.195-1.356-.431-16.343,2.488-2.583-2.832-61.635.272L1596.5,4.944,1591.58,4.7l-5.808,4.823L1569.365,6.7l-1.7.394-3.5-.184-3.152.621L1553,6.648l-3.585.074-3.178.78-9.439,4-.3-.118-1.185.668-.723-.242-.406.177-3.566-1.511-9.056-3.041-1.182-.092-.7.085-1.318-.242-.987-.077-1.28-.02-7.151,1.9-4.851,2.205-1.157-.25-.045.021-8.674-1.646-8.44,4.365-5.028-1.33-.783.306-4.047-.878-.179.053-3.251-.629-4.5,1.005-5.709-1.485-2.5-.029-2.926.808-2.816-.273-3.63,1.23-3.657-.525-2.319.387-2.907-.829-7.82,1.8-2.474-.858-3.578.666-2.226-.971-3.34.652-3.939-1.8-5.081.682-2.175-1.3-7.219.764-3.428-3.164-5.851.563-2.826-2.181-3.888.338-.355-.274-4.234.211-2.081-3.292-49.21.217-2.848,4.418-15.794-.014-8.96,4.141-3.883-.54-2.472.893-7.392-1.19-2.718,1.028-1.292-.119-4.18,1.175-5.546-1.28-3.441.827-1.326-.117-.279.05-6.87,3.637-9.824-1.827-3.719,1.133L1244.4,21.77l-10.859-2.745-4.744,4.127L1218.248,20.6l-6.941,4.312-9.056-3.105-.7.314-4.265-.787-4.388,2.014-6.013-1.358-3.974,1.394-3.414-.835-5.35,2.891-14.79-3.793-.739.037-.3-.107-8.621,3.805-1.358-.314L1141.578,28,1131,23.506l-7.005-.73-3.7.974-2.438-.339-2.467.266-3.328-1.075-2.677-.369-.547.126-4.751,1.446-.884-.148-7.88,1.814-2.37-1.064-2.835.738-8.238-3.234-1.031-.244-6.114,1.524-9.379-2.934-3.034.094-1.574-.522-.731.032-2.979-.836L1041.3,21l-4.073-3.991-5.14-2.531-6.627-.16-3.382-1.592-1.417-.065-3.62-1.284-6.493.211L1007,9.538l-3.839-.284-.561.018-.137-.069-2.425-.179L998.782,7.35l-.678-.342-8.983-.036-.675-.6-4.927.532-1.417-1-5.529,1.011-2.536-1.794-63.494.28-1.88,2.429L903.912,7.2l-.363.321-5.481-.67-.035.033-5.412-.208-3.511,4.284-4.056-.546-1.24-.084-1,1.3-15.7-1.512-1.214.518-2.644.261-4.827,2.917-4.933-.17-1.383.069-.326.118-1.067-.03-4.014,4.3-7.429-.784-.933.429-1.306-.217-1.912,1.2-8.883-1.265-4.8,2.3-10.782-1.945-.9.152-1.973-.258-8.081,2.018L793.846,18.1l-4.051-.68-4.228.224-16.225,5.24-7.163-5.337-1.842.762-4.536-1.11-4.909,1.443-1.814-.67L745.065,19.8l-9.084-2.852-.335.1-1.936-.26-5.784,2.158-6.5-1.51-7.464,2.475-5.843-1.7-5.3,1.287-4.452-1.248L689,20.225l-1.326-.456-5.494,2.215-1.732-.455-4.3,2.009-.887-.3-1.528.591-5.669-2.407-1.836.507-7.394-2.524-.505.05-2.182-.553-3.526.146-4.168.8-1.662.764-7.08-.63L631.184,23,624.7,20.994l-4.622,1.83-8.594-2.183-.559-.065-2.579.4-4.336-1.2-.275-.032-12.6.954-.657-.266-3.094.6L584.8,20.6l-5.716,1.125-5.127-1.457-.694.114L562.74,25.215l-4.428-1.607-.5.177-.064-.021-.835.329L552.9,22.82,547.19,24.85l-9.6-4.121-.8.193-5.095-.662-6.313-.315-.8.156-12.6,5.076L502.466,21.3l-4.445-.425-7.744,1.944-6.24-2.228-3.616.775-3.287-.707-10.517,2.565-1.243-.516-4.745,1.79-8.364-3.2-2.659.622-5.57-1.535-11.05,4.674L426.8,22.574l-1.029.2-4.459-2.232L420,20.366l-6.266,1.328-3.768-1.061-.059.014-4.14-.561-3.674.638-1.2-.238-1.911.324-12.157,4.568-4.916-2.416-5.366-2.334-3.689-.369-9.574,2.875-2.606-.907-2.046.517-1.645-.628-1.822.434-3.03-1.125-1.349.277-.975-.289-1.231.257-2.35-.707-2.742.581-3.846-.993-6.372,2.007-6.885-1.871-4.164.877-.082-.022-3.057,1.052-10.553-2.786-1.64.453-2.172-.184-4.976.708-4.678-1.169-13.247-.058-4.488,1.279-4.185-.932-3.9,1-10.994-3.457-10.427.5-3.092-1.8-8.4,1.57-.877-.44-11.2,2.31-4.543-5.6-2.793-1.052-7.022.473-.992.374-9.62-2.229-7.77,5.106L182.532,14.3l-1.885.977-5.674-.857-3.9,2.583-9.434-1.093-2.1.868-1.711-.028-.01.006-6.177.714-3.588.7L143.464,23.7l-3.717-.237-.137.224-6.65.116-3.038,3.589-3.229-.212-1.219,1.32-12.37-.892-1.615.072-3,1.1-1.868-.033-6.272,2.35-.484-.046-3.36,1.794-9.133-1.2-2.034.477-3.8-.507-3.789.6-4.1-.857-.523.058L57.9,36.69l-4.526-2.426-5.7,2.227L37.407,31.7l-4.955.9-.927-.318L26.036,33.87,15.668,29.816l-8.661.48L3.361,28.639l-.423-.1-1.6-.089L.545,28.5,0,28.428V323.409H3522.968V10.753Z" transform="translate(3.918 2832.621) rotate(-90)" fill="#eeeceb"/>
  </g>
</svg>
